<svg id="_x31_px" enable-background="new 0 0 24 24" height="512" viewBox="0 0 24 24" width="512" xmlns="http://www.w3.org/2000/svg"><path d="m19 24h-3c-.551 0-1-.449-1-1v-5h-2.5c-.202 0-.385-.122-.462-.309-.078-.187-.035-.402.108-.545l5-5c.195-.195.512-.195.707 0l5 5c.143.143.186.358.108.545-.076.187-.259.309-.461.309h-2.5v5c0 .551-.449 1-1 1zm-5.293-7h1.793c.276 0 .5.224.5.5v5.5h3v-5.5c0-.276.224-.5.5-.5h1.793l-3.793-3.793z"/><path d="m9.5 6c-4.224 0-8.5-1.03-8.5-3s4.276-3 8.5-3 8.5 1.03 8.5 3-4.276 3-8.5 3zm0-5c-4.578 0-7.5 1.185-7.5 2s2.922 2 7.5 2 7.5-1.185 7.5-2-2.922-2-7.5-2z"/><path d="m17.5 10c-.276 0-.5-.224-.5-.5v-6.5c0-.276.224-.5.5-.5s.5.224.5.5v6.5c0 .276-.224.5-.5.5z"/><path d="m9.5 22c-4.224 0-8.5-1.03-8.5-3v-16c0-.276.224-.5.5-.5s.5.224.5.5v16c0 .815 2.922 2 7.5 2 1.065 0 2.051-.063 2.931-.185.273-.04.526.152.564.426s-.152.526-.426.564c-.925.13-1.958.195-3.069.195z"/><path d="m9.5 18c-4.224 0-8.5-1.03-8.5-3 0-.276.224-.5.5-.5s.5.224.5.5c0 .815 2.922 2 7.5 2 .276 0 .5.224.5.5s-.224.5-.5.5z"/><path d="m9.5 14c-4.224 0-8.5-1.03-8.5-3 0-.276.224-.5.5-.5s.5.224.5.5c0 .815 2.922 2 7.5 2 1.023 0 1.99-.059 2.875-.176.271-.041.524.157.561.43.036.274-.156.525-.43.561-.928.123-1.939.185-3.006.185z"/><path d="m9.5 10c-4.224 0-8.5-1.03-8.5-3 0-.276.224-.5.5-.5s.5.224.5.5c0 .815 2.922 2 7.5 2s7.5-1.185 7.5-2c0-.276.224-.5.5-.5s.5.224.5.5c0 1.97-4.276 3-8.5 3z"/></svg>