<?xml version="1.0"?>
<svg xmlns="http://www.w3.org/2000/svg" width="512" height="512" viewBox="0 0 512 512"><g><path d="M496,24H16a8,8,0,0,0-8,8V64a8,8,0,0,0,8,8h8V392a32.036,32.036,0,0,0,32,32H248v17.38a24,24,0,1,0,16,0V424H456a32.042,32.042,0,0,0,32-32V72h8a8,8,0,0,0,8-8V32A8,8,0,0,0,496,24ZM256,472a8,8,0,1,1,8-8A8.011,8.011,0,0,1,256,472Zm216-80a16.021,16.021,0,0,1-16,16H56a16.021,16.021,0,0,1-16-16V72H472ZM488,56H24V40H488Z"/><path d="M88,320h64a8,8,0,0,0,0-16H96V264h24a8,8,0,0,0,0-16H96V208h56a8,8,0,0,0,0-16H88a8,8,0,0,0-8,8V312A8,8,0,0,0,88,320Z"/><path d="M176,248h32a8,8,0,0,0,0-16H176a8,8,0,0,0,0,16Z"/><path d="M176,272h32a8,8,0,0,0,0-16H176a8,8,0,0,0,0,16Z"/><path d="M240,320a8,8,0,0,0,8-8V260a12,12,0,0,1,24,0v52a8,8,0,0,0,16,0V260a12,12,0,0,1,24,0v52a8,8,0,0,0,16,0V260a27.981,27.981,0,0,0-48-19.569,27.94,27.94,0,0,0-33.432-4.991A8,8,0,0,0,232,240v72A8,8,0,0,0,240,320Z"/><path d="M368,320h24a8,8,0,0,0,0-16H368a16.019,16.019,0,0,1-16-16V264a16.019,16.019,0,0,1,16-16h24a8,8,0,0,0,0-16H368a32.036,32.036,0,0,0-32,32v24A32.036,32.036,0,0,0,368,320Z"/><path d="M408,224h16a8,8,0,0,0,0-16h-8v-3.056l11.578-5.789A8,8,0,0,0,432,192V176a8,8,0,0,0-8-8H408a8,8,0,0,0,0,16h8v3.056l-11.578,5.789A8,8,0,0,0,400,200v16A8,8,0,0,0,408,224Z"/></g></svg>
