<svg height="480pt" viewBox="0 0 480 480" width="480pt" xmlns="http://www.w3.org/2000/svg"><path d="m440 0h-400c-22.082031.0273438-39.9726562 17.917969-40 40v400c.0273438 22.082031 17.917969 39.972656 40 40h400c22.082031-.027344 39.972656-17.917969 40-40v-400c-.027344-22.082031-17.917969-39.9726562-40-40zm-424 40c0-13.253906 10.746094-24 24-24h400c13.253906 0 24 10.746094 24 24v24h-448zm448 400c0 13.253906-10.746094 24-24 24h-400c-13.253906 0-24-10.746094-24-24v-360h448zm0 0"/><path d="m68.441406 142.65625 19.285156-12.855469 24.273438 18.199219v12c0 4.417969 3.582031 8 8 8h24c4.417969 0 8-3.582031 8-8s-3.582031-8-8-8h-16v-8c0-2.519531-1.1875-4.890625-3.199219-6.398438l-32-24c-2.714843-2.039062-6.417969-2.140624-9.242187-.257812l-24 16c-3.675782 2.453125-4.667969 7.421875-2.214844 11.097656 2.453125 3.675782 7.421875 4.667969 11.097656 2.214844zm0 0"/><path d="m40 208c2.121094 0 4.15625-.84375 5.65625-2.34375l41.105469-41.105469 6.941406 10.402344-11.359375 11.359375c-3.03125 3.136719-2.988281 8.128906.097656 11.214844 3.085938 3.085937 8.074219 3.128906 11.214844.097656l16-16c2.695312-2.699219 3.117188-6.921875 1-10.097656l-16-24c-1.328125-1.992188-3.480469-3.28125-5.863281-3.519532-2.382813-.210937-4.738281.628907-6.449219 2.304688l-48 48c-2.308594 2.285156-3.007812 5.738281-1.769531 8.742188 1.242187 3.003906 4.175781 4.957031 7.425781 4.945312zm0 0"/><path d="m144 112c0 8.835938-7.164062 16-16 16s-16-7.164062-16-16 7.164062-16 16-16 16 7.164062 16 16zm0 0"/><path d="m184 128h8c4.417969 0 8-3.582031 8-8s-3.582031-8-8-8h-8c-4.417969 0-8 3.582031-8 8s3.582031 8 8 8zm0 0"/><path d="m216 128h72c4.417969 0 8-3.582031 8-8s-3.582031-8-8-8h-72c-4.417969 0-8 3.582031-8 8s3.582031 8 8 8zm0 0"/><path d="m184 152h8c4.417969 0 8-3.582031 8-8s-3.582031-8-8-8h-8c-4.417969 0-8 3.582031-8 8s3.582031 8 8 8zm0 0"/><path d="m216 152h56c4.417969 0 8-3.582031 8-8s-3.582031-8-8-8h-56c-4.417969 0-8 3.582031-8 8s3.582031 8 8 8zm0 0"/><path d="m320 128h8c4.417969 0 8-3.582031 8-8s-3.582031-8-8-8h-8c-4.417969 0-8 3.582031-8 8s3.582031 8 8 8zm0 0"/><path d="m352 128h72c4.417969 0 8-3.582031 8-8s-3.582031-8-8-8h-72c-4.417969 0-8 3.582031-8 8s3.582031 8 8 8zm0 0"/><path d="m320 152h88c4.417969 0 8-3.582031 8-8s-3.582031-8-8-8h-88c-4.417969 0-8 3.582031-8 8s3.582031 8 8 8zm0 0"/><path d="m152 288h-16v-24c0-4.417969-3.582031-8-8-8h-32c-4.417969 0-8 3.582031-8 8v24h-16c-4.417969 0-8 3.582031-8 8s3.582031 8 8 8h336c4.417969 0 8-3.582031 8-8s-3.582031-8-8-8h-16v-56c0-4.417969-3.582031-8-8-8h-32c-4.417969 0-8 3.582031-8 8v56h-16v-88c0-4.417969-3.582031-8-8-8h-32c-4.417969 0-8 3.582031-8 8v88h-16v-56c0-4.417969-3.582031-8-8-8h-32c-4.417969 0-8 3.582031-8 8v56h-16v-72c0-4.417969-3.582031-8-8-8h-32c-4.417969 0-8 3.582031-8 8zm-48 0v-16h16v16zm256-48h16v48h-16zm-64-32h16v80h-16zm-64 32h16v48h-16zm-64-16h16v64h-16zm0 0"/><path d="m424 432h-360v-24h32c2.121094 0 4.15625-.84375 5.65625-2.34375l30.398438-30.398438 12.273437 42.917969c.746094 2.621094 2.777344 4.679688 5.386719 5.464844s5.441406.1875 7.507812-1.585937l48.21875-41.328126 11.414063 22.832032c1.347656 2.714844 4.113281 4.433594 7.144531 4.441406h30.113281l30.3125 15.199219c3.257813 1.628906 7.203125.847656 9.597657-1.894531l48.800781-55.738282 18.351562 30.59375c1.449219 2.382813 4.035157 3.835938 6.824219 3.839844h32c4.417969 0 8-3.582031 8-8s-3.582031-8-8-8h-27.472656l-21.671875-36.121094c-1.316407-2.1875-3.601563-3.613281-6.144531-3.839844-2.542969-.226562-5.042969.773438-6.726563 2.695313l-51.9375 59.34375-26.472656-13.238281c-1.109375-.554688-2.332031-.839844-3.574219-.839844h-27.054688l-13.746093-27.574219c-1.101563-2.207031-3.15625-3.78125-5.574219-4.269531s-4.921875.167969-6.792969 1.773438l-46.527343 39.878906-12.578126-44c-.777343-2.726563-2.9375-4.835938-5.679687-5.546875-2.742187-.710938-5.65625.082031-7.664063 2.082031l-37.695312 37.65625h-28.6875v-48c0-4.417969-3.582031-8-8-8s-8 3.582031-8 8v96c0 4.417969 3.582031 8 8 8h368c4.417969 0 8-3.582031 8-8s-3.582031-8-8-8zm0 0"/><path d="m48 32h-8c-4.417969 0-8 3.582031-8 8s3.582031 8 8 8h8c4.417969 0 8-3.582031 8-8s-3.582031-8-8-8zm0 0"/><path d="m80 32h-8c-4.417969 0-8 3.582031-8 8s3.582031 8 8 8h8c4.417969 0 8-3.582031 8-8s-3.582031-8-8-8zm0 0"/><path d="m112 32h-8c-4.417969 0-8 3.582031-8 8s3.582031 8 8 8h8c4.417969 0 8-3.582031 8-8s-3.582031-8-8-8zm0 0"/></svg>