<svg height="512pt" viewBox="-40 0 512 512.272" width="512pt" xmlns="http://www.w3.org/2000/svg"><path d="m344.214844 40.265625h-256.078125c-4.425781 0-8-3.585937-8-8 0-4.417969 3.574219-8 8-8h256.078125c4.425781 0 8 3.582031 8 8 0 4.414063-3.574219 8-8 8zm0 0"/><path d="m344.199219 488.273438h-256.078125c-4.425782 0-8-3.578126-8-8 0-4.425782 3.574218-8 8-8h256.078125c4.425781 0 8 3.574218 8 8 0 4.421874-3.574219 8-8 8zm0 0"/><path d="m64.136719 240.28125c-4.425781 0-8-3.585938-8-8v-176.015625c0-4.417969 3.574219-8 8-8 4.421875 0 8 3.582031 8 8v176.015625c0 4.414062-3.578125 8-8 8zm0 0"/><path d="m64.136719 464.273438c-4.425781 0-8-3.578126-8-8v-175.992188c0-4.425781 3.574219-8 8-8 4.421875 0 8 3.574219 8 8v175.992188c0 4.414062-3.578125 8-8 8zm0 0"/><path d="m368.199219 464.273438c-4.421875 0-8-3.578126-8-8v-175.992188c0-4.425781 3.578125-8 8-8 4.425781 0 8 3.574219 8 8v175.992188c0 4.414062-3.574219 8-8 8zm0 0"/><path d="m368.136719 240.28125c-4.425781 0-8-3.585938-8-8v-176.015625c0-4.417969 3.574219-8 8-8 4.421875 0 8 3.582031 8 8v176.015625c0 4.414062-3.578125 8-8 8zm0 0"/><path d="m168.105469 160.265625c-13.234375 0-24-10.769531-24-24 0-13.234375 10.765625-24 24-24 13.230469 0 24 10.765625 24 24 0 13.230469-10.769531 24-24 24zm0-32c-4.417969 0-8 3.589844-8 8 0 4.40625 3.582031 8 8 8 4.414062 0 8-3.59375 8-8 0-4.410156-3.585938-8-8-8zm0 0"/><path d="m216.105469 160.265625c-13.234375 0-24-10.769531-24-24 0-13.234375 10.765625-24 24-24 13.230469 0 24 10.765625 24 24 0 13.230469-10.769531 24-24 24zm0-32c-4.417969 0-8 3.589844-8 8 0 4.40625 3.582031 8 8 8 4.414062 0 8-3.59375 8-8 0-4.410156-3.585938-8-8-8zm0 0"/><path d="m216.105469 240.265625c-13.234375 0-24-10.769531-24-24 0-13.234375 10.765625-24 24-24 13.230469 0 24 10.765625 24 24 0 13.230469-10.769531 24-24 24zm0-32c-4.417969 0-8 3.589844-8 8 0 4.40625 3.582031 8 8 8 4.414062 0 8-3.59375 8-8 0-4.410156-3.585938-8-8-8zm0 0"/><path d="m216.105469 408.28125c-13.234375 0-24-10.769531-24-24 0-13.234375 10.765625-24 24-24 13.230469 0 24 10.765625 24 24 0 13.230469-10.769531 24-24 24zm0-32c-4.417969 0-8 3.582031-8 8 0 4.414062 3.582031 8 8 8 4.414062 0 8-3.585938 8-8 0-4.417969-3.585938-8-8-8zm0 0"/><path d="m192.105469 200.265625c-13.234375 0-24-10.769531-24-24 0-13.234375 10.765625-24 24-24 13.230469 0 24 10.765625 24 24 0 13.230469-10.769531 24-24 24zm0-32c-4.417969 0-8 3.589844-8 8 0 4.40625 3.582031 8 8 8 4.414062 0 8-3.59375 8-8 0-4.410156-3.585938-8-8-8zm0 0"/><path d="m240.105469 200.265625c-13.234375 0-24-10.769531-24-24 0-13.234375 10.765625-24 24-24 13.230469 0 24 10.765625 24 24 0 13.230469-10.769531 24-24 24zm0-32c-4.417969 0-8 3.589844-8 8 0 4.40625 3.582031 8 8 8 4.414062 0 8-3.59375 8-8 0-4.410156-3.585938-8-8-8zm0 0"/><path d="m264.105469 160.265625c-13.234375 0-24-10.769531-24-24 0-13.234375 10.765625-24 24-24 13.230469 0 24 10.765625 24 24 0 13.230469-10.769531 24-24 24zm0-32c-4.417969 0-8 3.589844-8 8 0 4.40625 3.582031 8 8 8 4.414062 0 8-3.59375 8-8 0-4.410156-3.585938-8-8-8zm0 0"/><path d="m64.121094 512.273438c-17.648438 0-32-14.351563-32-32 0-17.648438 14.351562-32 32-32 17.648437 0 32 14.351562 32 32 0 17.648437-14.351563 32-32 32zm0-48c-8.824219 0-16 7.175781-16 16 0 8.824218 7.175781 16 16 16 8.824218 0 16-7.175782 16-16 0-8.824219-7.175782-16-16-16zm0 0"/><path d="m368.136719 512.273438c-17.648438 0-32-14.351563-32-32 0-17.648438 14.351562-32 32-32 17.648437 0 32 14.351562 32 32 0 17.648437-14.351563 32-32 32zm0-48c-8.824219 0-16 7.175781-16 16 0 8.824218 7.175781 16 16 16s16-7.175782 16-16c0-8.824219-7.175781-16-16-16zm0 0"/><path d="m368.136719 288.136719c-17.648438 0-32-14.351563-32-32 0-17.648438 14.351562-32 32-32 17.648437 0 32 14.351562 32 32 0 17.648437-14.351563 32-32 32zm0-48c-8.824219 0-16 7.175781-16 16s7.175781 16 16 16 16-7.175781 16-16-7.175781-16-16-16zm0 0"/><path d="m368.136719 64c-17.648438 0-32-14.351562-32-32s14.351562-32 32-32c17.648437 0 32 14.351562 32 32s-14.351563 32-32 32zm0-48c-8.824219 0-16 7.175781-16 16s7.175781 16 16 16 16-7.175781 16-16-7.175781-16-16-16zm0 0"/><path d="m64.121094 64c-17.648438 0-32-14.351562-32-32s14.351562-32 32-32c17.648437 0 32 14.351562 32 32s-14.351563 32-32 32zm0-48c-8.824219 0-16 7.175781-16 16s7.175781 16 16 16c8.824218 0 16-7.175781 16-16s-7.175782-16-16-16zm0 0"/><path d="m64.121094 288.136719c-17.648438 0-32-14.351563-32-32 0-17.648438 14.351562-32 32-32 17.648437 0 32 14.351562 32 32 0 17.648437-14.351563 32-32 32zm0-48c-8.824219 0-16 7.175781-16 16s7.175781 16 16 16c8.824218 0 16-7.175781 16-16s-7.175782-16-16-16zm0 0"/><path d="m40.121094 488.273438c-4.425782 0-8-3.578126-8-8v-448.007813c0-4.417969 3.574218-8 8-8 4.421875 0 8 3.582031 8 8v448.007813c0 4.414062-3.578125 8-8 8zm0 0"/><path d="m392.136719 488.273438c-4.425781 0-8-3.578126-8-8v-448.007813c0-4.417969 3.574219-8 8-8 4.421875 0 8 3.582031 8 8v448.007813c0 4.414062-3.578125 8-8 8zm0 0"/><path d="m368.199219 512.273438h-304.078125c-4.425782 0-8-3.578126-8-8 0-4.425782 3.574218-8 8-8h304.078125c4.425781 0 8 3.574218 8 8 0 4.421874-3.574219 8-8 8zm0 0"/><path d="m368.199219 16.265625h-304.078125c-4.425782 0-8-3.585937-8-8 0-4.417969 3.574218-8 8-8h304.078125c4.425781 0 8 3.582031 8 8 0 4.414063-3.574219 8-8 8zm0 0"/><path d="m8.136719 455.945312c-4.425781 0-8-3.578124-8-8v-383.679687c0-4.417969 3.574219-8 8-8 4.421875 0 8 3.582031 8 8v383.679687c0 4.414063-3.578125 8-8 8zm0 0"/><path d="m424.136719 455.945312c-4.425781 0-8-3.578124-8-8v-383.679687c0-4.417969 3.574219-8 8-8 4.421875 0 8 3.582031 8 8v383.679687c0 4.414063-3.578125 8-8 8zm0 0"/></svg>