<svg height="511pt" viewBox="0 1 511.9995 511" width="511pt" xmlns="http://www.w3.org/2000/svg"><path d="m344.714844 10.765625c88.394531 1.539063 158.800781 74.410156 157.261718 162.761719-1.070312 61.410156-36.617187 114.132812-87.875 140.0625-9.175781-50.25-41.890624-92.460938-86.484374-114.542969 1.667968-9.269531 2.539062-18.808594 2.539062-28.558594 0-56.679687-29.484375-106.484375-73.96875-134.894531 25.554688-16.226562 55.988281-25.398438 88.527344-24.828125zm0 0" fill="#2ec8e3"/><path d="m414.101562 313.589844c1.878907 10.261718 2.769532 20.859375 2.578126 31.691406-1.539063 88.363281-74.457032 158.734375-162.855469 157.195312-88.394531-1.550781-158.800781-74.421874-157.261719-162.773437.148438-8.78125 1.011719-17.390625 2.519531-25.761719 21.390625 10.589844 45.496094 16.550782 70.988281 16.550782 31.535157 0 60.941407-9.109376 85.726563-24.851563 24.101563 15.410156 52.625 24.550781 83.320313 25.082031 26.957031.46875 52.480468-5.75 74.984374-17.132812zm0 0" fill="#ff5691"/><path d="m327.613281 199.046875c44.59375 22.082031 77.3125 64.292969 86.488281 114.542969-22.503906 11.382812-48.027343 17.601562-74.980468 17.132812-30.695313-.53125-59.222656-9.671875-83.324219-25.082031 37.039063-23.511719 63.753906-61.8125 71.816406-106.59375zm0 0" fill="#b2edf7"/><path d="m330.15625 170.488281c0 9.75-.871094 19.289063-2.542969 28.5625-20.589843-10.199219-43.703125-16.101562-68.195312-16.53125-26.964844-.46875-52.488281 5.75-74.976563 17.109375-1.882812-10.25-2.773437-20.847656-2.582031-31.679687.96875-55.832031 30.445313-104.492188 74.328125-132.351563 44.484375 28.40625 73.96875 78.210938 73.96875 134.890625zm0 0" fill="#f9dd9d"/><path d="m256.1875 35.597656c-43.882812 27.859375-73.359375 76.519532-74.328125 132.351563-.191406 10.828125.699219 21.429687 2.578125 31.679687-43.929688 22.230469-76.320312 64.132813-85.351562 114.3125-52.789063-26.152344-89.089844-80.5625-89.089844-143.453125-.007813-88.363281 71.660156-160.003906 160.085937-159.992187 31.695313 0 61.242188 9.199218 86.105469 25.101562zm0 0" fill="#ffd469"/><path d="m184.4375 199.628906c8.105469 44.390625 34.570312 82.5 71.359375 106.011719-24.78125 15.738281-54.1875 24.851563-85.726563 24.851563-25.492187 0-49.59375-5.960938-70.984374-16.550782 9.03125-50.183594 41.421874-92.082031 85.351562-114.3125zm0 0" fill="#ffb3b3"/><path d="m464.261719 52.640625c-31.558594-32.660156-73.949219-51.082031-119.371094-51.871094-31.328125-.550781-61.859375 7.429688-88.691406 23.109375-26.027344-15.320312-55.660157-23.378906-86.117188-23.378906-.011719 0-.011719 0-.019531 0-45.421875 0-88.132812 17.679688-120.253906 49.78125-32.128906 32.109375-49.8203128 74.800781-49.808594 120.210938 0 32.28125 9.089844 63.703124 26.300781 90.851562 15.417969 24.320312 36.667969 44.300781 61.789063 58.121094-.898438 6.640625-1.410156 13.359375-1.53125 20.0625-1.628906 93.71875 73.324218 171.300781 167.09375 172.941406 1.007812.019531 2 .03125 3.007812.03125 92.410156 0 168.402344-74.324219 170.023438-167.042969.019531-1 .027344-2.011719.027344-3.011719 0-7.839843-.539063-15.667968-1.609376-23.390624 52.730469-29.558594 85.8125-84.601563 86.871094-145.351563.792969-45.398437-16.148437-88.390625-47.710937-121.0625zm-268.421875 152.664063c19.03125-8.421876 39.851562-12.8125 60.792968-12.8125.867188 0 1.738282.011718 2.609376.023437 19.878906.347656 39.007812 4.46875 56.980468 12.269531-8.410156 35.859375-30.011718 67.648438-60.410156 88.832032-30.101562-21.121094-51.542969-52.710938-59.972656-88.3125zm41.34375 99.382812c-20.730469 10.378906-43.652344 15.808594-67.113282 15.808594-20.777343 0-40.789062-4.128906-59.578124-12.289063 9.039062-38.574219 33.441406-72.363281 67.148437-93.304687 9.550781 35.453125 30.539063 67.082031 59.542969 89.785156zm97.277344-90.453125c34.230468 20.800781 59.019531 54.742187 68.230468 93.691406-19.808594 8.769531-41.570312 13.171875-63.398437 12.800781-22.679688-.390624-44.839844-5.878906-64.882813-15.980468 29.34375-22.8125 50.53125-54.710938 60.050782-90.511719zm-14.957032-29.75c-19.011718-7.582031-39.101562-11.601563-59.910156-11.960937-22.972656-.398438-45.910156 3.878906-67.082031 12.46875-.539063-5.589844-.75-11.226563-.648438-16.867188.828125-48.402344 24.757813-92.984375 64.308594-120.503906 40.191406 28.113281 63.980469 73.574218 63.980469 122.875 0 4.667968-.21875 9.347656-.648438 13.988281zm-276.3125 66.160156c-15.171875-23.949219-23.191406-51.671875-23.191406-80.160156-.011719-40.0625 15.601562-77.734375 43.941406-106.0625 28.347656-28.332031 66.03125-43.921875 106.121094-43.921875h.019531c14.367188 0 28.527344 2.03125 42.109375 5.988281 8.730469 2.550781 17.21875 5.882813 25.359375 9.992188-40.53125 31.460937-64.789062 79.441406-65.691406 131.292969-.160156 8.847656.371094 17.699218 1.570313 26.390624-39.988282 22.488282-69.449219 60.558594-81.191407 104.601563-19.777343-12-36.578125-28.449219-49.046875-48.121094zm363.492188 94.460938c-1.429688 81.824219-68.472656 147.394531-150.03125 147.394531-.878906 0-1.769532-.011719-2.648438-.019531-82.742187-1.449219-148.882812-69.910157-147.441406-152.605469.070312-3.796875.269531-7.597656.628906-11.378906 19.941406 7.96875 41.039063 12 62.878906 12 30.28125 0 59.769532-7.988282 85.703126-23.140625 25.160156 14.800781 53.789062 22.859375 83.167968 23.359375.992188.023437 1.972656.03125 2.953125.03125 22 0 43.867188-4.28125 64.136719-12.507813.53125 5.589844.75 11.226563.652344 16.867188zm85.289062-171.753907c-.890625 51.433594-27.808594 98.222657-71.078125 124.972657-11.953125-44.347657-41.8125-82.5-82.292969-104.808594 1.039063-7.601563 1.550782-15.320313 1.550782-23.023437 0-52.871094-24.140625-101.851563-65.332032-133.960938 20.730469-10.378906 43.601563-15.789062 67.042969-15.789062.890625 0 1.789063.007812 2.679688.019531 40.078125.699219 77.488281 16.960937 105.339843 45.78125 27.839844 28.820312 42.789063 66.75 42.089844 106.808593zm0 0"/><path d="m65.011719 175.488281c-.058594 0-.117188 0-.171875 0-5.523438-.09375-9.925782-4.648437-9.832032-10.167969.515626-30.515624 12.695313-58.804687 34.296876-79.664062 20.660156-19.953125 47.636718-30.652344 75.933593-30.148438 5.523438.101563 9.917969 4.65625 9.820313 10.179688-.101563 5.519531-4.660156 9.902344-10.179688 9.816406-22.960937-.429687-44.867187 8.300782-61.683594 24.539063-17.753906 17.144531-27.765624 40.445312-28.191406 65.613281-.089844 5.464844-4.550781 9.832031-9.992187 9.832031zm0 0"/><path d="m71.691406 212.492188c-5.519531 0-10.003906-4.476563-10.003906-10 0-5.519532 4.472656-10 9.996094-10h.007812c5.523438 0 10 4.480468 10 10 0 5.523437-4.476562 10-10 10zm0 0"/></svg>