<?xml version="1.0" encoding="iso-8859-1"?>
<!-- Generator: Adobe Illustrator 19.0.0, SVG Export Plug-In . SVG Version: 6.00 Build 0)  -->
<svg version="1.1" id="Capa_1" xmlns="http://www.w3.org/2000/svg" xmlns:xlink="http://www.w3.org/1999/xlink" x="0px" y="0px"
	 viewBox="0 0 512.001 512.001" style="enable-background:new 0 0 512.001 512.001;" xml:space="preserve">
<g>
	<g>
		<g>
			<path d="M471.046,69.735c0.761,0.751,0.921,1.559,0.921,2.103c0,0.975-0.521,1.489-0.75,1.716l-34.907,34.779
				c-7.825,7.796-7.848,20.459-0.052,28.284c3.907,3.922,9.037,5.884,14.168,5.884c5.106,0,10.213-1.943,14.116-5.832l34.849-34.72
				c8.109-8.013,12.576-18.707,12.576-30.11c0-11.545-4.548-22.397-12.747-30.498L464.083,6.333
				c-7.824-7.796-20.487-7.773-28.284,0.052c-7.796,7.825-7.773,20.488,0.052,28.284L471.046,69.735z"/>
			<path d="M488.937,191.301c-15.149-15.348-35.368-23.8-56.932-23.8h-64.004c-29.918,0-58.201,11.495-79.64,32.366L132.618,351.501
				H79.997c-21.563,0-41.782,8.453-56.932,23.8c-15.149,15.346-23.338,35.68-23.058,57.255c0.564,43.53,36.849,78.944,80.884,78.944
				h128.11c11.046,0,20-8.954,20-20v-25h27c11.046,0,20-8.954,20-20v-26h26c11.046,0,20-8.954,20-20v-27h27c11.046,0,20-8.954,20-20
				v-26h62.109c44.035,0,80.319-35.414,80.884-78.944C512.275,226.982,504.086,206.648,488.937,191.301z M431.11,287.501h-82.109
				c-11.046,0-20,8.954-20,20v26h-27c-11.046,0-20,8.954-20,20v27h-26c-11.046,0-20,8.954-20,20v26h-27c-11.046,0-20,8.954-20,20v25
				H80.892c-22.263,0-40.605-17.703-40.888-39.463c-0.14-10.794,3.954-20.964,11.528-28.637c7.575-7.674,17.685-11.9,28.465-11.9
				h60.749c5.212,0,10.218-2.035,13.952-5.67l161.566-157.304c13.929-13.559,32.302-21.026,51.737-21.026h64.004
				c10.78,0,20.89,4.227,28.465,11.9c7.574,7.673,11.668,17.843,11.528,28.637C471.716,269.798,453.373,287.501,431.11,287.501z"/>
			<path d="M108.352,261.501c5.003,0,10.013-1.865,13.895-5.616l152.471-147.646c11.193-10.794,25.919-16.738,41.468-16.738h86.815
				c11.046,0,20-8.954,20-20s-8.954-20-20-20h-86.815c-25.96,0-50.549,9.925-69.305,28.013L94.454,227.117
				c-7.943,7.675-8.162,20.336-0.487,28.28C97.891,259.46,103.118,261.501,108.352,261.501z"/>
		</g>
	</g>
</g>
<g>
</g>
<g>
</g>
<g>
</g>
<g>
</g>
<g>
</g>
<g>
</g>
<g>
</g>
<g>
</g>
<g>
</g>
<g>
</g>
<g>
</g>
<g>
</g>
<g>
</g>
<g>
</g>
<g>
</g>
</svg>
