<svg id="Glyph" enable-background="new 0 0 64 64" height="512" viewBox="0 0 64 64" width="512" xmlns="http://www.w3.org/2000/svg"><path d="m36.787 44.422c-.163.998-.422 1.962-.771 2.884l3.131 2.837c-.439.924-.939 1.812-1.516 2.646l-4.02-1.296c-.634.775-1.344 1.484-2.119 2.118l1.296 4.02c-.834.577-1.722 1.076-2.646 1.516l-2.837-3.131c-.922.349-1.885.608-2.884.771l-.893 4.136c-.505.04-1.012.077-1.528.077s-1.023-.037-1.529-.077l-.893-4.136c-.998-.163-1.962-.422-2.884-.771l-2.837 3.131c-.924-.439-1.812-.939-2.646-1.516l1.296-4.02c-.775-.634-1.484-1.344-2.118-2.118l-4.02 1.296c-.577-.834-1.076-1.722-1.516-2.646l3.131-2.837c-.349-.922-.608-1.885-.771-2.884l-4.136-.893c-.04-.506-.077-1.013-.077-1.529s.037-1.023.077-1.529l4.136-.893c.163-.998.422-1.962.771-2.884l-3.131-2.837c.439-.924.939-1.812 1.516-2.646l4.02 1.296c.634-.775 1.344-1.484 2.119-2.118l-1.296-4.02c.834-.577 1.722-1.076 2.646-1.516l2.837 3.131c.922-.349 1.885-.608 2.884-.771l.893-4.136c.505-.04 1.012-.077 1.528-.077s1.023.037 1.529.077l.893 4.136c.998.163 1.962.422 2.884.771l2.837-3.131c.924.439 1.812.939 2.646 1.516l-1.296 4.02c.775.634 1.484 1.344 2.118 2.119l4.02-1.296c.577.834 1.076 1.722 1.516 2.646l-3.131 2.837c.349.922.608 1.885.771 2.884l4.136.893c.04.505.077 1.012.077 1.528s-.037 1.023-.077 1.529zm-14.787-12.422c-5.523 0-10 4.477-10 10s4.477 10 10 10 10-4.477 10-10-4.477-10-10-10z"/><path d="m50.659 16.305c-.156.517-.36 1.013-.611 1.48l1.579 3.026c-.533.674-1.141 1.282-1.815 1.815l-3.026-1.579c-.467.252-.963.456-1.48.611l-1.024 3.26c-.422.05-.848.082-1.282.082s-.86-.032-1.281-.081l-1.024-3.26c-.517-.155-1.013-.36-1.48-.611l-3.026 1.579c-.674-.533-1.282-1.141-1.815-1.815l1.579-3.026c-.252-.467-.456-.963-.611-1.48l-3.26-1.024c-.05-.422-.082-.848-.082-1.282s.032-.86.081-1.281l3.26-1.024c.155-.517.36-1.013.611-1.48l-1.579-3.026c.533-.674 1.141-1.282 1.815-1.815l3.026 1.579c.467-.252.963-.456 1.48-.611l1.024-3.26c.422-.05.848-.082 1.282-.082s.86.032 1.281.081l1.024 3.26c.517.155 1.013.36 1.48.611l3.026-1.579c.674.533 1.282 1.141 1.815 1.815l-1.579 3.026c.252.467.456.963.611 1.48l3.26 1.024c.05.422.082.848.082 1.282s-.032.86-.081 1.281zm-7.659-6.305c-2.209 0-4 1.791-4 4s1.791 4 4 4 4-1.791 4-4-1.791-4-4-4z"/><path d="m58.739 38.871c-.154.555-.371 1.081-.649 1.572l.995 2.094c-.452.577-.971 1.096-1.548 1.548l-2.094-.995c-.49.278-1.017.495-1.572.649l-.778 2.188c-.359.044-.722.073-1.093.073s-.734-.029-1.093-.073l-.778-2.188c-.555-.154-1.081-.371-1.572-.649l-2.094.995c-.577-.452-1.096-.971-1.548-1.548l.995-2.094c-.278-.49-.495-1.017-.649-1.571l-2.188-.778c-.044-.36-.073-.723-.073-1.094s.029-.734.073-1.093l2.188-.778c.154-.555.371-1.081.649-1.571l-.995-2.094c.452-.577.971-1.096 1.548-1.548l2.094.995c.49-.278 1.017-.495 1.572-.649l.778-2.188c.359-.045.722-.074 1.093-.074s.734.029 1.093.073l.778 2.188c.555.154 1.081.371 1.572.649l2.094-.995c.577.452 1.096.971 1.548 1.548l-.995 2.094c.278.49.495 1.017.649 1.572l2.188.778c.044.359.073.722.073 1.093s-.029.734-.073 1.093zm-6.739-4.871c-1.657 0-3 1.343-3 3s1.343 3 3 3 3-1.343 3-3-1.343-3-3-3z"/><path d="m61.196 5.02-5.981-1.196-1.196 5.98 1.961.393.539-2.692c.969 2.016 1.481 4.238 1.481 6.495 0 3.448-1.138 6.69-3.29 9.375l1.561 1.251c2.405-3.001 3.729-6.774 3.729-10.626 0-2.619-.605-5.201-1.756-7.531l2.56.512z"/><path d="m23.707 13.293-1.414 1.414 1.359 1.359c-.55-.035-1.101-.066-1.652-.066-7.736 0-15.018 3.411-19.978 9.359l1.536 1.281c4.579-5.491 11.3-8.64 18.442-8.64.509 0 1.017.029 1.525.061l-1.232 1.232 1.414 1.414 3.707-3.707z"/></svg>