<svg height="512" viewBox="0 0 64 64" width="512" xmlns="http://www.w3.org/2000/svg"><g id="speedometer"><path d="m32 2a30 30 0 1 0 30 30 30.037 30.037 0 0 0 -30-30zm0 58a28 28 0 1 1 28-28 28.031 28.031 0 0 1 -28 28z"/><path d="m39 47h-14a1 1 0 0 0 -1 1v8a1 1 0 0 0 1 1h14a1 1 0 0 0 1-1v-8a1 1 0 0 0 -1-1zm-1 8h-12v-6h12z"/><path d="m32 7a25.022 25.022 0 0 0 -25 25 1 1 0 0 0 1 1h8a1 1 0 0 0 1-1 14.994 14.994 0 0 1 24.49-11.61l-6.49 5.3a7.04 7.04 0 1 0 3.31 3.31l5.3-6.49a14.923 14.923 0 0 1 3.39 9.49 1 1 0 0 0 1 1h8a1 1 0 0 0 1-1 25.022 25.022 0 0 0 -25-25zm-16.97 24h-6.01a22.939 22.939 0 0 1 2.58-9.62l5.22 3.01a16.742 16.742 0 0 0 -1.79 6.61zm2.79-8.34-5.21-3.01a23.066 23.066 0 0 1 7.04-7.04l3 5.2a17.162 17.162 0 0 0 -4.83 4.85zm13.18-7.61a16.883 16.883 0 0 0 -6.61 1.76l-3.01-5.21a22.939 22.939 0 0 1 9.62-2.58zm1 21.95a5 5 0 0 1 0-10 5.416 5.416 0 0 1 1.21.15l-3.26 2.66a.462.462 0 0 0 -.07.07 3 3 0 1 0 4.24 4.24.462.462 0 0 0 .07-.07l2.66-3.26a5.416 5.416 0 0 1 .15 1.21 5 5 0 0 1 -5 5zm.68-4.26a1.041 1.041 0 0 1 -1.39-.03.99.99 0 0 1 -.29-.71 1.014 1.014 0 0 1 .26-.68l7.7-6.28zm.32-17.69v-6.03a22.939 22.939 0 0 1 9.62 2.58l-3.01 5.21a16.883 16.883 0 0 0 -6.61-1.76zm13.18 7.61a16.765 16.765 0 0 0 -1.29-1.72l1.88-2.31a.994.994 0 0 0 -1.4-1.4l-2.32 1.89a17.876 17.876 0 0 0 -1.7-1.31l3-5.2a23.066 23.066 0 0 1 7.04 7.04zm2.79 8.34a16.742 16.742 0 0 0 -1.79-6.61l5.22-3.01a22.939 22.939 0 0 1 2.58 9.62z"/><path d="m44 39a3 3 0 1 0 3 3 3 3 0 0 0 -3-3zm0 4a1 1 0 1 1 1-1 1 1 0 0 1 -1 1z"/><path d="m52 39a3 3 0 1 0 3 3 3 3 0 0 0 -3-3zm0 4a1 1 0 1 1 1-1 1 1 0 0 1 -1 1z"/><path d="m20 39a3 3 0 1 0 3 3 3 3 0 0 0 -3-3zm0 4a1 1 0 1 1 1-1 1 1 0 0 1 -1 1z"/><path d="m12 39a3 3 0 1 0 3 3 3 3 0 0 0 -3-3zm0 4a1 1 0 1 1 1-1 1 1 0 0 1 -1 1z"/><path d="m25 41h2v2h-2z"/><path d="m29 41h5v2h-5z"/><path d="m36 41h2v2h-2z"/></g></svg>