<?xml version="1.0" encoding="iso-8859-1"?>
<!-- Generator: Adobe Illustrator 19.0.0, SVG Export Plug-In . SVG Version: 6.00 Build 0)  -->
<svg version="1.1" id="Capa_1" xmlns="http://www.w3.org/2000/svg" xmlns:xlink="http://www.w3.org/1999/xlink" x="0px" y="0px"
	 viewBox="0 0 512 512" style="enable-background:new 0 0 512 512;" xml:space="preserve">
<g>
	<g>
		<path d="M449.667,279.844c-1.687-1.687-3.413-3.321-5.171-4.908V0H22.501v512h331.004v-0.003
			c36.325,0,70.475-14.146,96.161-39.832c25.686-25.686,39.832-59.836,39.832-96.161
			C489.499,339.68,475.353,305.529,449.667,279.844z M311.633,30h102.863v224.38c-9.519-4.785-19.578-8.415-30-10.833V60h-72.863V30
			z M311.633,90h42.863v150.025c-0.33-0.002-0.659-0.012-0.989-0.012c-36.325,0-70.476,14.146-96.161,39.832
			c-6.824,6.822-12.824,14.247-17.969,22.147h-95.878v30h81.27c-3.29,9.651-5.495,19.702-6.542,30.004h-74.728v30h74.947
			c1.201,10.314,3.553,20.367,7.007,30.003H112.501V90h42.863v58.971h156.269V90z M185.364,30h96.269v30h-96.269V30z M185.364,90
			h96.269v28.971h-96.269V90z M52.501,482V30h102.863v30H82.501v392h158.187c4.846,7.162,10.407,13.916,16.656,20.166
			c3.497,3.497,7.156,6.772,10.951,9.834H52.501z M428.454,450.953c-41.327,41.325-108.569,41.326-149.896,0
			c-41.326-41.327-41.326-108.569,0-149.896c20.664-20.663,47.806-30.995,74.948-30.995c27.143,0,54.285,10.332,74.948,30.995
			C469.78,342.383,469.78,409.626,428.454,450.953z"/>
	</g>
</g>
<g>
	<g>
		<path d="M416.376,346.863c-1.239-21.637-18.468-39.132-40.076-40.697c-7.942-0.573-15.823,1.056-22.794,4.589
			c-6.965-3.53-14.837-5.159-22.781-4.59c-21.322,1.537-38.541,18.777-40.052,40.103c-0.616,8.702,1.344,17.206,5.586,24.606
			c-3.528,20.689-0.257,53.349,30.261,72.744l15.921,10.119l10.681-30.304l10.916,30.969l16.133-11.078
			c29.127-20,32.681-52.042,29.944-71.353C414.693,364.504,416.89,355.826,416.376,346.863z M383.001,358.335l-5.537,6.112
			l2.194,7.95c0.057,0.206,3.7,14.826-2.425,29.194l-6.141-17.421c-2.681-7.608-9.901-12.721-17.968-12.721h-0.001
			c-8.066,0-15.288,5.111-17.969,12.719l-6.448,18.294c-6.442-14.355-2.223-29.708-1.967-30.604l2.207-7.724l-5.206-6.118
			c-2.275-2.674-3.391-6.094-3.141-9.629c0.456-6.434,5.851-11.836,12.283-12.299c0.339-0.024,0.675-0.037,1.011-0.037
			c3.466,0,6.713,1.299,9.23,3.713l10.382,9.958l10.383-9.957c2.764-2.649,6.404-3.957,10.247-3.677
			c6.518,0.472,11.917,5.958,12.291,12.49C386.633,352.203,385.417,355.668,383.001,358.335z"/>
	</g>
</g>
<g>
	<g>
		<polygon points="247.439,209.679 247.439,185.558 217.439,185.558 217.439,209.679 193.318,209.679 193.318,239.679 
			217.439,239.679 217.439,263.8 247.439,263.8 247.439,239.679 271.561,239.679 271.561,209.679 		"/>
	</g>
</g>
<g>
</g>
<g>
</g>
<g>
</g>
<g>
</g>
<g>
</g>
<g>
</g>
<g>
</g>
<g>
</g>
<g>
</g>
<g>
</g>
<g>
</g>
<g>
</g>
<g>
</g>
<g>
</g>
<g>
</g>
</svg>
