<?xml version="1.0" encoding="iso-8859-1"?>
<!-- Generator: Adobe Illustrator 19.0.0, SVG Export Plug-In . SVG Version: 6.00 Build 0)  -->
<svg version="1.1" id="Capa_1" xmlns="http://www.w3.org/2000/svg" xmlns:xlink="http://www.w3.org/1999/xlink" x="0px" y="0px"
	 viewBox="0 0 512 512" style="enable-background:new 0 0 512 512;" xml:space="preserve">
<g>
	<g>
		<path d="M373.739,279.755l-75.072-38.933v-27.488h-21.333v33.973c0,3.985,2.221,7.639,5.76,9.472l80.821,41.888
			c25.783,13.633,41.773,40.543,41.419,69.707v122.293H106.667V368.373c-0.355-29.163,15.635-56.074,41.419-69.707l80.821-41.888
			c3.539-1.833,5.76-5.487,5.76-9.472v-33.973h-21.333v27.488l-75.072,38.933c-32.863,17.279-53.297,51.492-52.928,88.619v132.96
			C85.333,507.224,90.109,512,96,512h320v0c5.891,0,10.667-4.776,10.667-10.667v-132.96
			C427.036,331.246,406.602,297.033,373.739,279.755z"/>
	</g>
</g>
<g>
	<g>
		<rect x="138.667" y="426.667" width="21.333" height="74.667"/>
	</g>
</g>
<g>
	<g>
		<rect x="352" y="426.667" width="21.333" height="74.667"/>
	</g>
</g>
<g>
	<g>
		<path d="M278.005,241.621L256,300.288l-22.005-58.677l-19.989,7.467l32,85.333c1.562,4.166,5.545,6.925,9.995,6.923
			c4.447,0.004,8.429-2.75,9.995-6.912l32-85.333L278.005,241.621z"/>
	</g>
</g>
<g>
	<g>
		<path d="M298.667,256v36.629l-48.16,28.896c-3.209,1.928-5.173,5.397-5.173,9.141v170.667h21.333V336.704l48.16-28.896
			c3.209-1.928,5.173-5.397,5.173-9.141V256H298.667z"/>
	</g>
</g>
<g>
	<g>
		<path d="M341.333,320c-23.564,0-42.667,19.103-42.667,42.667v32H320v-32c0-11.782,9.551-21.333,21.333-21.333
			c11.782,0,21.333,9.551,21.333,21.333v32H384v-32C384,339.103,364.898,320,341.333,320z"/>
	</g>
</g>
<g>
	<g>
		<rect x="330.667" y="277.333" width="21.333" height="53.333"/>
	</g>
</g>
<g>
	<g>
		<rect x="160" y="277.333" width="21.333" height="74.667"/>
	</g>
</g>
<g>
	<g>
		<path d="M170.667,341.333c-17.673,0-32,14.327-32,32s14.327,32,32,32c17.673,0,32-14.327,32-32S188.34,341.333,170.667,341.333z
			 M170.667,384c-5.891,0-10.667-4.776-10.667-10.667c0-5.891,4.776-10.667,10.667-10.667c5.891,0,10.667,4.776,10.667,10.667
			C181.333,379.224,176.558,384,170.667,384z"/>
	</g>
</g>
<g>
	<g>
		<path d="M213.333,292.629V256H192v42.667c0.001,3.744,1.964,7.213,5.173,9.141l53.333,32l10.987-18.283L213.333,292.629z"/>
	</g>
</g>
<g>
	<g>
		<path d="M256,0c-47.128,0-85.333,38.205-85.333,85.333v64c0.053,47.106,38.227,85.28,85.333,85.333
			c47.106-0.053,85.28-38.227,85.333-85.333v-64C341.333,38.205,303.128,0,256,0z M320,149.333c0,35.346-28.654,64-64,64
			s-64-28.654-64-64v-64c0.035-35.332,28.668-63.965,64-64c35.332,0.035,63.965,28.668,64,64V149.333z"/>
	</g>
</g>
<g>
	<g>
		<path d="M231.52,77.749c-2.99-3.127-7.563-4.156-11.605-2.613c-3.972,1.526-6.59,5.345-6.581,9.6
			c-0.501,3.904-7.861,11.264-32,11.264v21.333c27.179,0,40.533-8.16,47.051-16.235c30.613,15.349,89.301,16.235,102.283,16.235V96
			C299.371,96,244.789,91.04,231.52,77.749z"/>
	</g>
</g>
<g>
</g>
<g>
</g>
<g>
</g>
<g>
</g>
<g>
</g>
<g>
</g>
<g>
</g>
<g>
</g>
<g>
</g>
<g>
</g>
<g>
</g>
<g>
</g>
<g>
</g>
<g>
</g>
<g>
</g>
</svg>
