<?xml version="1.0" encoding="iso-8859-1"?>
<!-- Generator: Adobe Illustrator 19.0.0, SVG Export Plug-In . SVG Version: 6.00 Build 0)  -->
<svg version="1.1" id="Capa_1" xmlns="http://www.w3.org/2000/svg" xmlns:xlink="http://www.w3.org/1999/xlink" x="0px" y="0px"
	 viewBox="0 0 512.001 512.001" style="enable-background:new 0 0 512.001 512.001;" xml:space="preserve">
<g>
	<g>
		<path d="M501.333,64.001H212.576c-5.35-36.713-36.808-63.954-73.909-64h-128C4.776,0.001,0,4.777,0,10.668v490.667
			C0,507.225,4.776,512,10.667,512h266.667v-21.333h-256V21.334h117.333c25.787,0.031,47.289,18.339,52.253,42.667H85.333v21.333
			h117.333h288v85.333H512v-96C512,68.777,507.224,64.001,501.333,64.001z"/>
	</g>
</g>
<g>
	<g>
		<path d="M458.162,312.322c19.789-15.628,32.505-39.815,32.505-66.988v-21.333c0-47.128-38.205-85.333-85.333-85.333
			S320,176.873,320,224.001v18.197c-0.316,28.218,12.783,53.564,33.463,69.851c-31.566,8.726-54.757,37.618-54.796,71.952v117.333
			c0,5.891,4.776,10.667,10.667,10.667h192c5.891,0,10.667-4.776,10.667-10.667V384.001
			C511.961,350.016,489.238,321.363,458.162,312.322z M405.333,160.001c27.741,0.028,51.345,17.689,60.227,42.377
			c-59.568-2.402-86.079-19.104-86.307-19.252c-3.764-2.51-8.701-2.373-12.32,0.341l-20.404,15.303
			C356.331,175.988,378.963,160.027,405.333,160.001z M341.333,242.198v-12.864l32.928-24.694
			c12.641,6.15,43.114,17.785,95.068,19.215c0,0.049,0.004,0.096,0.004,0.145v21.333c0,0.668-0.01,1.336-0.03,2.004
			c-1.052,34.088-28.575,61.117-62.242,61.996h-3.701C368.058,307.142,340.729,277.563,341.333,242.198z M432.242,330.668
			l-26.909,67.285l-26.909-67.285h24.253c0.896,0,1.771,0,2.656,0H432.242z M320,490.668V384.001
			c0.028-23.568,15.33-43.545,36.534-50.6l38.132,95.331v40.603H416v-40.603l38.132-95.331c21.205,7.055,36.506,27.031,36.534,50.6
			v106.667H320z"/>
	</g>
</g>
<g>
	<g>
		<path d="M416,256.001c0,5.891-4.776,10.667-10.667,10.667s-10.667-4.776-10.667-10.667h-21.333c0,17.673,14.327,32,32,32
			c17.673,0,32-14.327,32-32H416z"/>
	</g>
</g>
<g>
	<g>
		<rect x="85.33" y="117.331" width="128" height="21.333"/>
	</g>
</g>
<g>
	<g>
		<rect x="85.33" y="170.671" width="128" height="21.333"/>
	</g>
</g>
<g>
	<g>
		<rect x="85.33" y="224.001" width="128" height="21.333"/>
	</g>
</g>
<g>
	<g>
		<path d="M64,448.001v-32H42.667v42.667c0,5.891,4.776,10.667,10.667,10.667H96v-21.334H64z"/>
	</g>
</g>
<g>
	<g>
		<rect x="117.33" y="448.001" width="21.333" height="21.333"/>
	</g>
</g>
<g>
	<g>
		<rect x="234.67" y="117.331" width="21.333" height="21.333"/>
	</g>
</g>
<g>
	<g>
		<rect x="234.67" y="170.671" width="21.333" height="21.333"/>
	</g>
</g>
<g>
	<g>
		<rect x="234.67" y="224.001" width="21.333" height="21.333"/>
	</g>
</g>
<g>
	<g>
		<rect x="42.667" y="64.001" width="21.333" height="21.333"/>
	</g>
</g>
<g>
	<g>
		<path d="M202.666,277.334H96c-5.891,0-10.667,4.776-10.667,10.667v85.333c0,5.891,4.776,10.667,10.667,10.667h106.667
			c5.891,0,10.666-4.776,10.666-10.667v-85.333C213.333,282.11,208.557,277.334,202.666,277.334z M192,362.668h-85.333v-64H192
			V362.668z"/>
	</g>
</g>
<g>
</g>
<g>
</g>
<g>
</g>
<g>
</g>
<g>
</g>
<g>
</g>
<g>
</g>
<g>
</g>
<g>
</g>
<g>
</g>
<g>
</g>
<g>
</g>
<g>
</g>
<g>
</g>
<g>
</g>
</svg>
