<?xml version="1.0" encoding="iso-8859-1"?>
<!-- Generator: Adobe Illustrator 19.0.0, SVG Export Plug-In . SVG Version: 6.00 Build 0)  -->
<svg version="1.1" id="Capa_1" xmlns="http://www.w3.org/2000/svg" xmlns:xlink="http://www.w3.org/1999/xlink" x="0px" y="0px"
	 viewBox="0 0 512 512" style="enable-background:new 0 0 512 512;" xml:space="preserve">
<g>
	<g>
		<path d="M497,96.4h-97.467V15c0-8.284-6.716-15-15-15H127.467c-8.284,0-15,6.716-15,15v81.4H15c-8.284,0-15,6.716-15,15V497
			c0,8.284,6.716,15,15,15h226v-63.2c0-8.284,6.716-15,15-15s15,6.716,15,15V512h226c8.284,0,15-6.716,15-15V111.4
			C512,103.116,505.284,96.4,497,96.4z M122.009,379.076c-2.8,2.79-6.66,4.39-10.609,4.39c-3.95,0-7.811-1.6-10.61-4.39
			c-2.79-2.8-4.39-6.66-4.39-10.61c0-3.95,1.6-7.82,4.39-10.61c2.79-2.789,6.66-4.39,10.61-4.39c3.949,0,7.82,1.601,10.609,4.39
			c2.79,2.801,4.391,6.66,4.391,10.61C126.4,372.416,124.799,376.276,122.009,379.076z M218.409,379.076
			c-2.801,2.79-6.66,4.39-10.61,4.39s-7.81-1.6-10.6-4.39c-2.8-2.8-4.4-6.66-4.4-10.61c0-3.95,1.601-7.82,4.4-10.61
			c2.78-2.789,6.649-4.39,10.6-4.39c3.95,0,7.82,1.601,10.61,4.39c2.79,2.801,4.39,6.66,4.39,10.61
			C222.799,372.416,221.199,376.276,218.409,379.076z M314.81,379.076c-2.801,2.79-6.66,4.39-10.61,4.39
			c-3.94,0-7.81-1.6-10.61-4.39c-2.79-2.8-4.39-6.66-4.39-10.61c0-3.95,1.6-7.81,4.39-10.61c2.79-2.789,6.66-4.39,10.61-4.39
			c3.95,0,7.819,1.601,10.61,4.39c2.789,2.79,4.39,6.66,4.39,10.61C319.2,372.416,317.599,376.276,314.81,379.076z M369.533,257.065
			H142.467V30h227.066V257.065z M411.209,379.076c-2.8,2.79-6.66,4.39-10.61,4.39c-3.939,0-7.809-1.6-10.609-4.39
			c-2.79-2.8-4.391-6.66-4.391-10.61c0-3.95,1.601-7.81,4.391-10.61c2.789-2.789,6.66-4.39,10.609-4.39
			c3.95,0,7.82,1.601,10.61,4.39c2.79,2.79,4.39,6.66,4.39,10.61C415.599,372.416,413.999,376.276,411.209,379.076z"/>
	</g>
</g>
<g>
	<g>
		<path d="M288.133,128.533H271V111.4c0-8.284-6.716-15-15-15s-15,6.716-15,15v17.133h-17.134c-8.284,0-15,6.716-15,15
			s6.716,15,15,15H241v17.132c0,8.284,6.716,15,15,15s15-6.716,15-15v-17.132h17.133c8.284,0,15-6.716,15-15
			S296.417,128.533,288.133,128.533z"/>
	</g>
</g>
<g>
</g>
<g>
</g>
<g>
</g>
<g>
</g>
<g>
</g>
<g>
</g>
<g>
</g>
<g>
</g>
<g>
</g>
<g>
</g>
<g>
</g>
<g>
</g>
<g>
</g>
<g>
</g>
<g>
</g>
</svg>
