<?xml version="1.0" encoding="iso-8859-1"?>
<!-- Generator: Adobe Illustrator 19.0.0, SVG Export Plug-In . SVG Version: 6.00 Build 0)  -->
<svg version="1.1" id="Capa_1" xmlns="http://www.w3.org/2000/svg" xmlns:xlink="http://www.w3.org/1999/xlink" x="0px" y="0px"
	 viewBox="0 0 512.001 512.001" style="enable-background:new 0 0 512.001 512.001;" xml:space="preserve">
<g>
	<g>
		<path d="M30.438,348.659h43.075c4.207,0,7.617-3.41,7.617-7.617v-38.558c-0.001-4.207-3.411-7.617-7.618-7.617
			s-7.617,3.41-7.617,7.617v30.941H30.438C13.654,333.424,0,347.079,0,363.862s13.654,30.438,30.438,30.438H39.4
			c14.609,0,26.494,11.886,26.494,26.494v71.472c0,4.207,3.41,7.617,7.617,7.617s7.617-3.41,7.617-7.617v-71.472
			c0-23.009-18.72-41.728-41.728-41.728h-8.963c-8.383,0-15.204-6.82-15.204-15.204C15.234,355.479,22.054,348.659,30.438,348.659z"
			/>
	</g>
</g>
<g>
	<g>
		<path d="M215.981,204.379c-8.015,0-15.248,3.394-20.353,8.814c-5.104-5.42-12.338-8.814-20.353-8.814s-15.248,3.394-20.353,8.814
			c-5.104-5.42-12.338-8.814-20.353-8.814s-15.248,3.394-20.353,8.814c-5.104-5.42-12.338-8.814-20.354-8.814
			c-15.423,0-27.97,12.547-27.97,27.97v45.761c0,4.207,3.41,7.617,7.617,7.617c4.207,0,7.617-3.41,7.617-7.617v-45.761
			c0-7.023,5.713-12.736,12.737-12.736c7.023,0,12.736,5.713,12.736,12.736v65.027c0,4.207,3.41,7.617,7.617,7.617
			c4.207,0,7.617-3.41,7.617-7.617v-65.027c0-7.023,5.713-12.736,12.736-12.736s12.736,5.713,12.736,12.736v65.027
			c0,4.207,3.41,7.617,7.617,7.617s7.617-3.41,7.617-7.617v-65.027c0-7.023,5.713-12.736,12.736-12.736
			c7.023,0,12.736,5.713,12.736,12.736v65.027c0,4.207,3.41,7.617,7.617,7.617s7.617-3.41,7.617-7.617v-65.027
			c0-7.023,5.713-12.736,12.736-12.736c7.023,0,12.736,5.713,12.736,12.736v259.917c0,4.207,3.41,7.617,7.617,7.617
			s7.617-3.41,7.617-7.617V232.348C243.95,216.926,231.404,204.379,215.981,204.379z"/>
	</g>
</g>
<g>
	<g>
		<path d="M481.563,333.424h-35.458V232.348c0-15.423-12.547-27.97-27.971-27.97c-8.015,0-15.248,3.394-20.353,8.814
			c-5.104-5.42-12.338-8.814-20.353-8.814c-8.015,0-15.248,3.394-20.353,8.814c-5.104-5.42-12.338-8.814-20.353-8.814
			c-8.015,0-15.248,3.394-20.353,8.814c-5.104-5.42-12.338-8.814-20.353-8.814c-15.423,0-27.97,12.547-27.97,27.97v173.727
			c0,4.207,3.41,7.617,7.617,7.617s7.617-3.41,7.617-7.617V232.348c0-7.023,5.713-12.736,12.736-12.736s12.736,5.713,12.736,12.736
			v65.027c0,4.207,3.41,7.617,7.617,7.617s7.617-3.41,7.617-7.617v-65.027c0-7.023,5.713-12.736,12.736-12.736
			s12.736,5.713,12.736,12.736v65.027c0,4.207,3.41,7.617,7.617,7.617c4.207,0,7.617-3.41,7.617-7.617v-65.027
			c0-7.023,5.713-12.736,12.736-12.736s12.736,5.713,12.736,12.736v65.027c0,4.207,3.41,7.617,7.617,7.617s7.617-3.41,7.617-7.617
			v-65.027c0-7.023,5.713-12.736,12.737-12.736c7.023,0,12.736,5.713,12.736,12.736v108.693c0,4.207,3.41,7.617,7.617,7.617h43.075
			c8.383,0,15.204,6.82,15.204,15.203c0,8.383-6.82,15.204-15.204,15.204h-8.963c-23.009,0-41.728,18.72-41.728,41.728v71.472
			c0,4.207,3.41,7.617,7.617,7.617c4.207,0,7.617-3.41,7.617-7.617v-71.472c0-14.609,11.886-26.494,26.494-26.494h8.963
			c16.783,0,30.438-13.654,30.438-30.438C512,347.079,498.346,333.424,481.563,333.424z"/>
	</g>
</g>
<g>
	<g>
		<path d="M275.667,422.832c-4.207,0-7.617,3.41-7.617,7.617v61.816c0,4.207,3.41,7.617,7.617,7.617s7.617-3.41,7.617-7.617v-61.816
			C283.284,426.243,279.873,422.832,275.667,422.832z"/>
	</g>
</g>
<g>
	<g>
		<path d="M376.704,50.271c-11.742-23.877-41.176-39.859-69.991-38.007c-21.626,1.391-39.44,12.633-50.714,31.495
			c-11.273-18.862-29.087-30.103-50.713-31.495c-28.818-1.85-58.249,14.13-69.991,38.007c-10.041,20.418-11.013,40.934-2.888,60.98
			c22.306,55.035,106.574,88.433,119.617,93.318c1.148,0.662,2.462,1.025,3.813,1.025c0.108,0,0.215,0,0.324,0
			c1.351,0,2.665-0.362,3.812-1.024c13.046-4.886,97.315-38.283,119.621-93.32C387.717,91.205,386.745,70.688,376.704,50.271z
			 M365.48,105.51c-19.016,46.967-94.161,78.293-109.483,84.259c-15.319-5.956-90.412-37.217-109.472-84.24
			c-6.515-16.074-5.717-31.95,2.439-48.535c8.524-17.332,30.344-29.64,51.807-29.64c1.18,0,2.359,0.038,3.535,0.113
			c20.422,1.313,35.952,13.812,43.926,35.267c0.082,1.418,0.561,2.806,1.41,3.993c1.43,1.999,3.736,3.184,6.194,3.184h0.324
			c2.458,0,4.764-1.185,6.194-3.184c0.849-1.187,1.328-2.575,1.41-3.993c7.974-21.455,23.504-33.953,43.926-35.267
			c22.541-1.455,46.349,11.242,55.342,29.528C371.186,73.572,371.986,89.442,365.48,105.51z"/>
	</g>
</g>
<g>
	<g>
		<path d="M405.802,326.858c-16.252,0-32.266,8.032-43.937,22.038c-11.945,14.333-18.523,33.738-18.523,54.64
			c0,4.207,3.41,7.617,7.617,7.617c4.207,0,7.617-3.41,7.617-7.617c0-37.952,24.514-61.444,47.225-61.444
			c4.207,0,7.617-3.41,7.617-7.617S410.008,326.858,405.802,326.858z"/>
	</g>
</g>
<g>
	<g>
		<path d="M156.23,348.896c-11.671-14.006-27.685-22.038-43.937-22.038c-4.207,0-7.617,3.41-7.617,7.617s3.41,7.617,7.617,7.617
			c29.17,0,47.225,31.894,47.225,61.444c0,4.207,3.41,7.617,7.617,7.617s7.617-3.41,7.617-7.617
			C174.752,382.634,168.174,363.229,156.23,348.896z"/>
	</g>
</g>
<g>
</g>
<g>
</g>
<g>
</g>
<g>
</g>
<g>
</g>
<g>
</g>
<g>
</g>
<g>
</g>
<g>
</g>
<g>
</g>
<g>
</g>
<g>
</g>
<g>
</g>
<g>
</g>
<g>
</g>
</svg>
