<?xml version="1.0" encoding="iso-8859-1"?>
<!-- Generator: Adobe Illustrator 19.0.0, SVG Export Plug-In . SVG Version: 6.00 Build 0)  -->
<svg version="1.1" id="Layer_1" xmlns="http://www.w3.org/2000/svg" xmlns:xlink="http://www.w3.org/1999/xlink" x="0px" y="0px"
	 viewBox="0 0 512 512" style="enable-background:new 0 0 512 512;" xml:space="preserve">
<g>
	<g>
		<g>
			<path d="M491.52,317.44h-40.96v-40.96c0-11.305-9.155-20.48-20.48-20.48h-81.92c-11.325,0-20.48,9.175-20.48,20.48v40.96h-40.96
				c-11.325,0-20.48,9.175-20.48,20.48v81.92c0,11.305,9.155,20.48,20.48,20.48h40.96v40.96c0,11.305,9.155,20.48,20.48,20.48h81.92
				c11.325,0,20.48-9.175,20.48-20.48v-40.96h40.96c11.325,0,20.48-9.175,20.48-20.48v-81.92
				C512,326.615,502.845,317.44,491.52,317.44z"/>
			<path d="M143.36,133.12c-11.305,0-20.48,9.195-20.48,20.48s9.175,20.48,20.48,20.48c11.305,0,20.48-9.196,20.48-20.48
				S154.665,133.12,143.36,133.12z"/>
			<path d="M143.36,10.24C64.328,10.24,0,74.547,0,153.6c0,66.601,112.026,308.92,124.805,336.323
				c3.359,7.209,10.588,11.837,18.534,11.837h0.02c7.967,0,15.176-4.608,18.555-11.817C174.674,462.623,286.72,221.041,286.72,153.6
				C286.72,74.547,222.392,10.24,143.36,10.24z M143.36,215.04c-33.874,0-61.44-27.566-61.44-61.44
				c0-33.874,27.566-61.44,61.44-61.44c33.874,0,61.44,27.566,61.44,61.44C204.8,187.474,177.234,215.04,143.36,215.04z"/>
		</g>
	</g>
</g>
<g>
</g>
<g>
</g>
<g>
</g>
<g>
</g>
<g>
</g>
<g>
</g>
<g>
</g>
<g>
</g>
<g>
</g>
<g>
</g>
<g>
</g>
<g>
</g>
<g>
</g>
<g>
</g>
<g>
</g>
</svg>
