<?xml version="1.0" encoding="iso-8859-1"?>
<!-- Generator: Adobe Illustrator 19.0.0, SVG Export Plug-In . SVG Version: 6.00 Build 0)  -->
<svg version="1.1" id="Capa_1" xmlns="http://www.w3.org/2000/svg" xmlns:xlink="http://www.w3.org/1999/xlink" x="0px" y="0px"
	 viewBox="0 0 511.872 511.872" style="enable-background:new 0 0 511.872 511.872;" xml:space="preserve">
<g>
	<g>
		<path d="M395.616,0H278.091c-12.245,0-22.229,9.963-22.229,22.229c0,23.04,18.752,41.771,41.792,41.771h28.459l-81.536,81.557
			c-12.971,12.971-12.971,34.091,0,47.083c12.587,12.587,34.496,12.587,47.083,0l19.115-19.115c1.6,3.648,3.883,7.04,6.869,10.027
			c7.68,7.637,18.24,10.773,28.181,9.387c1.216,6.336,4.267,12.395,9.152,17.28c9.323,9.301,22.827,11.904,34.496,7.893
			c1.536,4.907,4.267,9.536,8.171,13.44c6.507,6.485,15.04,9.728,23.552,9.728c8.533,0,17.045-3.243,23.531-9.728l33.088-33.067
			c21.973-21.973,34.048-51.157,34.048-82.219C511.861,52.16,459.723,0,395.616,0z M462.752,183.403l-33.088,33.067
			c-4.672,4.651-12.245,4.651-16.917,0c-4.672-4.672-4.672-12.245,0-16.917c2.069-2.091,3.115-4.821,3.115-7.552
			c0-2.731-1.045-5.461-3.093-7.509c-4.16-4.16-10.923-4.16-15.083,0l-10.667,10.667c-4.672,4.651-12.245,4.651-16.917,0
			c-2.24-2.24-3.499-5.269-3.499-8.448c0-3.179,1.259-6.187,3.499-8.448l10.667-10.667c2.069-2.091,3.115-4.821,3.115-7.552
			s-1.024-5.461-3.115-7.552c-4.16-4.16-10.923-4.16-15.083,0l-16,16c-4.672,4.651-12.245,4.651-16.917,0
			c-2.24-2.24-3.499-5.248-3.499-8.448c0-3.072,1.131-5.973,3.221-8.192l26.944-26.944c4.16-4.16,4.16-10.923,0-15.083
			c-4.16-4.16-10.923-4.16-15.083,0l-26.667,26.667c-0.149,0.149-0.299,0.299-0.448,0.448l-40.64,40.661
			c-4.501,4.523-12.416,4.523-16.917,0c-4.672-4.672-4.672-12.245,0-16.917l99.755-99.776c3.029-3.051,3.947-7.637,2.304-11.627
			c-1.643-3.989-5.547-6.592-9.856-6.592h-54.208c-11.264,0-20.459-9.173-20.459-20.437c0-0.491,0.427-0.896,0.896-0.896h117.525
			c52.331,0,94.912,42.581,94.912,94.933C490.549,141.632,480.672,165.483,462.752,183.403z"/>
	</g>
</g>
<g>
	<g>
		<path d="M231.563,397.611c-3.904-3.883-8.533-6.613-13.44-8.171c4.053-11.691,1.429-25.173-7.893-34.496
			c-4.885-4.885-10.923-7.915-17.237-9.131c0.213-1.536,0.32-3.072,0.32-4.651c0-8.896-3.456-17.28-9.749-23.552
			c-2.987-2.987-6.379-5.269-10.027-6.891l19.115-19.115c12.971-12.992,12.971-34.112,0-47.083
			c-12.587-12.587-34.496-12.587-47.083,0L64.011,326.08v-28.459c0-23.04-18.731-41.771-41.771-41.771
			c-12.245,0-22.229,9.984-22.229,22.229v117.525c0,64.107,52.16,116.267,116.267,116.267c31.04,0,60.224-12.096,82.219-34.112
			l33.067-33.067C244.533,431.723,244.533,410.581,231.563,397.611z M216.437,429.696l-33.067,33.067
			c-17.92,17.92-41.771,27.797-67.115,27.797c-52.352,0-94.933-42.581-94.933-94.933V278.101l0.896-0.896
			c11.285,0,20.437,9.173,20.437,20.416v54.229c0,4.309,2.603,8.213,6.592,9.856c3.968,1.685,8.555,0.747,11.627-2.304
			l99.776-99.755c4.544-4.523,12.373-4.523,16.917,0c4.672,4.672,4.672,12.245,0,16.917l-40.789,40.789
			c-0.107,0.085-0.213,0.192-0.32,0.299l-26.667,26.667c-4.16,4.16-4.16,10.923,0,15.083c4.16,4.16,10.923,4.16,15.083,0
			l26.859-26.859c4.565-4.309,12.267-4.267,16.725,0.192c2.24,2.261,3.477,5.291,3.477,8.469c0,3.179-1.259,6.187-3.499,8.448
			l-16,16c-2.069,2.091-3.115,4.821-3.115,7.552c0,2.731,1.024,5.461,3.115,7.552c4.16,4.16,10.923,4.16,15.083,0l10.667-10.667
			c4.501-4.523,12.416-4.523,16.917,0c4.672,4.672,4.672,12.245,0,16.917l-10.667,10.667c-2.069,2.091-3.115,4.821-3.115,7.552
			c0,2.731,1.024,5.461,3.115,7.552c4.16,4.16,10.923,4.16,15.083,0c4.672-4.672,12.245-4.672,16.917,0
			S221.109,425.024,216.437,429.696z"/>
	</g>
</g>
<g>
	<g>
		<path d="M149.472,106.667c-23.531,0-42.667,19.136-42.667,42.667S125.941,192,149.472,192c23.531,0,42.667-19.136,42.667-42.667
			C192.139,125.803,173.003,106.667,149.472,106.667z M149.472,170.667c-11.776,0-21.333-9.579-21.333-21.333
			c0-11.755,9.557-21.333,21.333-21.333s21.333,9.579,21.333,21.333C170.805,161.088,161.248,170.667,149.472,170.667z"/>
	</g>
</g>
<g>
	<g>
		<path d="M117.472,213.333h-32v-32c0-5.888-4.779-10.667-10.667-10.667s-10.667,4.779-10.667,10.667V224
			c0,5.888,4.779,10.667,10.667,10.667h42.667c5.909,0,10.667-4.779,10.667-10.667S123.36,213.333,117.472,213.333z"/>
	</g>
</g>
<g>
	<g>
		<path d="M224.139,64h-42.667c-5.888,0-10.667,4.779-10.667,10.667s4.779,10.667,10.667,10.667h32v32
			c0,5.888,4.779,10.667,10.667,10.667c5.909,0,10.667-4.757,10.667-10.667V74.667C234.805,68.779,230.027,64,224.139,64z"/>
	</g>
</g>
<g>
	<g>
		<path d="M134.389,164.416c-4.16-4.16-10.923-4.16-15.083,0l-52.053,52.053c-4.16,4.16-4.16,10.923,0,15.083
			c2.091,2.069,4.821,3.115,7.552,3.115s5.461-1.045,7.531-3.115l52.053-52.053C138.549,175.339,138.549,168.576,134.389,164.416z"
			/>
	</g>
</g>
<g>
	<g>
		<path d="M231.669,67.136c-4.16-4.16-10.923-4.16-15.083,0l-52.053,52.053c-4.16,4.16-4.16,10.923,0,15.083
			c2.091,2.069,4.821,3.115,7.552,3.115c2.731,0,5.461-1.045,7.531-3.115l52.053-52.053
			C235.829,78.059,235.829,71.296,231.669,67.136z"/>
	</g>
</g>
<g>
</g>
<g>
</g>
<g>
</g>
<g>
</g>
<g>
</g>
<g>
</g>
<g>
</g>
<g>
</g>
<g>
</g>
<g>
</g>
<g>
</g>
<g>
</g>
<g>
</g>
<g>
</g>
<g>
</g>
</svg>
