<?xml version="1.0" encoding="iso-8859-1"?>
<!-- Generator: Adobe Illustrator 19.0.0, SVG Export Plug-In . SVG Version: 6.00 Build 0)  -->
<svg version="1.1" id="Capa_1" xmlns="http://www.w3.org/2000/svg" xmlns:xlink="http://www.w3.org/1999/xlink" x="0px" y="0px"
	 viewBox="0 0 512.001 512.001" style="enable-background:new 0 0 512.001 512.001;" xml:space="preserve">
<g>
	<g>
		<path d="M183.995,28.104c-4.148,0-7.511,3.363-7.511,7.511v13.774c0,4.149,3.363,7.511,7.511,7.511s7.511-3.363,7.511-7.511
			V35.615C191.506,31.466,188.143,28.104,183.995,28.104z"/>
	</g>
</g>
<g>
	<g>
		<path d="M218.86,28.104c-4.148,0-7.511,3.363-7.511,7.511v13.774c0,4.149,3.363,7.511,7.511,7.511
			c4.148,0,7.511-3.363,7.511-7.511V35.615C226.371,31.466,223.008,28.104,218.86,28.104z"/>
	</g>
</g>
<g>
	<g>
		<path d="M253.726,28.104c-4.148,0-7.511,3.363-7.511,7.511v13.774c0,4.149,3.363,7.511,7.511,7.511s7.511-3.363,7.511-7.511
			V35.615C261.237,31.466,257.874,28.104,253.726,28.104z"/>
	</g>
</g>
<g>
	<g>
		<path d="M288.591,28.104c-4.148,0-7.511,3.363-7.511,7.511v13.774c0,4.149,3.363,7.511,7.511,7.511
			c4.148,0,7.511-3.363,7.511-7.511V35.615C296.102,31.466,292.739,28.104,288.591,28.104z"/>
	</g>
</g>
<g>
	<g>
		<path d="M323.457,28.104c-4.148,0-7.511,3.363-7.511,7.511v13.774c0,4.149,3.363,7.511,7.511,7.511s7.511-3.363,7.511-7.511
			V35.615C330.968,31.466,327.605,28.104,323.457,28.104z"/>
	</g>
</g>
<g>
	<g>
		<path d="M502.894,288.129c-4.501-5.265-13.314-8.901-21.932-9.048c-8.198-0.108-15.621,2.934-20.888,8.687L391.2,363.863
			c-0.795,0.259-1.579,0.531-2.357,0.804V147.444c0-12.341-6.591-23.921-17.202-30.221l-33.013-19.604v-16.78h7.894
			c10.665,0,19.342-8.676,19.342-19.342V23.508c0-10.666-8.677-19.342-19.342-19.342H160.929c-10.665,0-19.342,8.676-19.342,19.342
			v37.989c0,10.666,8.677,19.342,19.342,19.342h7.894v16.78l-33.013,19.603c-10.611,6.301-17.202,17.881-17.202,30.222v175.064
			c-6.834,1.138-14.481,2.515-22.493,3.958c-3.122,0.562-6.264,1.128-9.383,1.685c-0.808-7.349-7.049-13.087-14.61-13.087H14.703
			C6.596,315.064,0,321.659,0,329.766v153.637c0,8.107,6.596,14.703,14.703,14.703h57.419c8.107,0,14.703-6.596,14.703-14.703
			v-3.186c31.834,5.371,91.79,15.982,123.16,24.73c6.907,1.926,13.984,2.888,21.058,2.888c7.869,0,15.733-1.191,23.349-3.568
			c12.024-3.753,26.077-7.946,40.956-12.384c44.443-13.258,94.746-28.264,117.397-39.452c3.003-0.866,7.861-3.634,19.74-14.808
			c6.729-6.33,12.593-12.431,12.84-12.687c0.444-0.463,0.827-0.98,1.14-1.54c12.541-22.458,27.964-45.823,42.879-68.419
			c6.17-9.346,12.549-19.011,18.518-28.309C516.662,312.957,509.713,296.109,502.894,288.129z M71.802,483.083h-56.78V330.087h56.78
			V483.083z M160.929,65.816c-2.382,0-4.319-1.938-4.319-4.319V23.508c0-2.382,1.938-4.319,4.319-4.319h185.594
			c2.382,0,4.319,1.938,4.319,4.319v37.989c0,2.382-1.938,4.319-4.319,4.319H160.929z M133.631,147.444
			c0-7.066,3.774-13.697,9.85-17.305l36.689-21.787c2.279-1.353,3.676-3.808,3.676-6.458V80.839h139.76v21.056
			c0,2.651,1.397,5.105,3.676,6.458l36.69,21.788c6.075,3.607,9.849,10.237,9.849,17.304v4.192h-240.19V147.444z M133.631,166.659
			h240.19v137.044h-240.19V166.659z M133.63,318.726L133.63,318.726h240.191v21.464c-7.272-6.722-17.613-10.582-30.973-11.518
			c-0.325-0.024-0.649-0.024-0.973-0.005c-26.074,1.556-61.838,4.405-82.961,7.262c-18.501,2.507-39.622-3.25-49.773-6.014
			c-0.827-0.226-1.594-0.434-2.286-0.62c-0.352-0.094-0.675-0.182-0.972-0.261c-0.249-0.111-0.506-0.208-0.771-0.293
			c-26.469-8.454-47.335-10.982-71.482-8.378V318.726z M495.218,318.553c-5.917,9.217-12.269,18.841-18.413,28.149
			c-14.879,22.541-30.26,45.842-42.981,68.519c-9.58,9.915-21.738,21.142-25.356,22.786c-0.583,0.135-1.148,0.34-1.684,0.61
			c-21.049,10.626-71.351,25.632-115.732,38.871c-14.925,4.453-29.023,8.658-41.137,12.44c-11.689,3.65-24.101,3.839-35.894,0.549
			c-32.873-9.167-95.831-20.227-127.196-25.494V343.392c3.958-0.701,7.97-1.423,11.953-2.141
			c10.054-1.811,19.551-3.523,27.432-4.758c25.179-3.946,44.716-2.488,70.799,5.457c0.649,0.326,1.395,0.614,2.251,0.851
			c0.721,0.201,1.894,0.519,3.703,1.005c0.681,0.182,1.426,0.385,2.229,0.604c11.106,3.024,34.213,9.32,55.735,6.407
			c20.604-2.787,55.595-5.579,81.344-7.124c17.622,1.343,26.19,8.111,28.612,22.498c0.04,0.501-0.216,1.952-0.385,2.913
			c-0.064,0.364-0.13,0.745-0.194,1.134c-31.354,7.157-65.987,12.016-99.544,16.721c-13.541,1.898-27.534,3.86-40.803,5.913
			c-2.312-0.183-2.38-1.162-2.429-1.891c-0.285-4.139-3.87-7.252-8.009-6.978c-4.139,0.285-7.263,3.871-6.978,8.009
			c0.641,9.305,7.741,15.698,17.67,15.907c0.053,0.001,0.106,0.002,0.158,0.002c0.386,0,0.771-0.029,1.153-0.089
			c13.379-2.077,26.954-3.981,41.325-5.995c35.858-5.028,72.937-10.227,106.396-18.257c0.098-0.023,0.19-0.057,0.286-0.084
			c3.92-0.893,7.602-2.227,11.161-3.528c2.373-0.867,4.615-1.686,6.829-2.34c1.325-0.39,2.517-1.139,3.444-2.163l70.221-77.583
			c2.358-2.575,5.548-3.86,9.523-3.779c5.334,0.091,9.712,2.553,10.767,3.787C493.526,300.29,500.173,310.833,495.218,318.553z"/>
	</g>
</g>
<g>
	<g>
		<path d="M304.192,214.863H276.23v-27.961c0-5.271-4.288-9.559-9.558-9.559h-21.063c-5.27,0-9.558,4.288-9.558,9.559v27.961H208.09
			c-5.27,0-9.558,4.288-9.558,9.559v21.063c0,5.27,4.288,9.558,9.558,9.558h27.962v27.962c0,5.27,4.288,9.558,9.558,9.558h21.063
			c5.27,0,9.558-4.288,9.558-9.558v-27.962h27.962c5.27,0,9.558-4.288,9.558-9.558v-21.064
			C313.75,219.15,309.463,214.863,304.192,214.863z M298.727,240.019h-30.008c-4.148,0-7.511,3.363-7.511,7.511v30.008h-10.134
			v-30.007c0-4.149-3.363-7.511-7.511-7.511h-30.008v-10.134h30.008c4.148,0,7.511-3.363,7.511-7.511v-30.008h10.134v30.008
			c0,4.149,3.363,7.511,7.511,7.511h30.008V240.019z"/>
	</g>
</g>
<g>
</g>
<g>
</g>
<g>
</g>
<g>
</g>
<g>
</g>
<g>
</g>
<g>
</g>
<g>
</g>
<g>
</g>
<g>
</g>
<g>
</g>
<g>
</g>
<g>
</g>
<g>
</g>
<g>
</g>
</svg>
