<?xml version="1.0" encoding="iso-8859-1"?>
<!-- Generator: Adobe Illustrator 19.0.0, SVG Export Plug-In . SVG Version: 6.00 Build 0)  -->
<svg version="1.1" id="Capa_1" xmlns="http://www.w3.org/2000/svg" xmlns:xlink="http://www.w3.org/1999/xlink" x="0px" y="0px"
	 viewBox="0 0 512 512" style="enable-background:new 0 0 512 512;" xml:space="preserve">
<g>
	<g>
		<path d="M376.468,0c-74.715,0-135.499,60.785-135.499,135.5v155.97c-3.005-3.724-6.23-7.326-9.689-10.784
			C205.686,255.094,171.659,241,135.466,241s-70.22,14.094-95.811,39.686c-52.831,52.832-52.831,138.795,0,191.627
			c25.592,25.592,59.619,39.685,95.813,39.685s70.221-14.094,95.813-39.685c10.209-10.21,18.437-21.659,24.7-33.865
			C278.511,482.092,324.061,512,376.468,512c74.715,0,135.5-60.785,135.5-135.5v-241C511.968,60.785,451.183,0,376.468,0z
			 M135.468,481.999c-28.18,0-54.674-10.973-74.6-30.898c-37.533-37.534-40.812-96.543-9.849-137.837l147.694,147.695
			C180.562,474.611,158.584,481.999,135.468,481.999z M219.917,439.736L72.222,292.041C90.374,278.389,112.351,271,135.466,271
			c28.18,0,54.674,10.974,74.602,30.899C247.601,339.434,250.879,398.442,219.917,439.736z M481.968,376.5
			c0,58.173-47.327,105.5-105.5,105.5c-58.172,0-105.499-47.327-105.499-105.5V271h210.999V376.5z M481.968,241H270.969V135.5
			c0-58.173,47.327-105.5,105.499-105.5c58.173,0,105.5,47.327,105.5,105.5V241z"/>
	</g>
</g>
<g>
</g>
<g>
</g>
<g>
</g>
<g>
</g>
<g>
</g>
<g>
</g>
<g>
</g>
<g>
</g>
<g>
</g>
<g>
</g>
<g>
</g>
<g>
</g>
<g>
</g>
<g>
</g>
<g>
</g>
</svg>
