<?xml version="1.0" encoding="iso-8859-1"?>
<!-- Generator: Adobe Illustrator 19.0.0, SVG Export Plug-In . SVG Version: 6.00 Build 0)  -->
<svg version="1.1" id="Capa_1" xmlns="http://www.w3.org/2000/svg" xmlns:xlink="http://www.w3.org/1999/xlink" x="0px" y="0px"
	 viewBox="0 0 480.024 480.024" style="enable-background:new 0 0 480.024 480.024;" xml:space="preserve">
<g>
	<g>
		<path d="M455.246,188.631c-14.265-8.714-32.816-5.155-42.843,8.219l-44.883,59.836c-7.6,10.2-18.873,17.04-31.43,19.07
			l-89.969,11.946l46.18-18.547c13.014-4.656,19.79-18.981,15.134-31.995c-1.759-4.918-5.013-9.162-9.306-12.138
			c-6.304-4.403-14.289-5.646-21.633-3.367L136.59,264.678c-19.203,5.438-35.437,18.326-45.086,35.797l-26.477,47.664
			c-0.241,0.43-0.44,0.883-0.594,1.352l-40,120c-1.403,4.185,0.853,8.715,5.038,10.117c0.821,0.275,1.682,0.415,2.548,0.414h120
			c4.034-0.002,7.435-3.006,7.938-7.008l6.016-48.148c0.85-6.623,5.406-12.18,11.734-14.312l203.461-67.813
			c15.556-5.139,28.588-15.978,36.477-30.336l48.367-79.203C475.347,217.921,470.527,197.966,455.246,188.631z M452.356,224.858
			l-48.562,79.547c-5.958,10.951-15.855,19.229-27.688,23.156l-203.461,67.82c-12.161,4.094-20.916,14.773-22.547,27.5
			l-5.141,41.141H43.122l36.25-108.766l26.117-47.008c7.63-13.797,20.469-23.963,35.648-28.226l140.063-43.07
			c2.652-0.828,5.539-0.378,7.813,1.219c2.33,1.616,3.767,4.23,3.883,7.063c0,4.091-2.604,7.728-6.477,9.047L181.036,296.6
			c-4.098,1.651-6.083,6.311-4.432,10.409c1.364,3.388,4.85,5.422,8.471,4.942l153.336-20.367
			c16.734-2.647,31.772-11.727,41.906-25.305l44.883-59.836c5.443-7.257,15.737-8.727,22.994-3.284
			C454.966,208.239,456.768,217.633,452.356,224.858z"/>
	</g>
</g>
<g>
	<g>
		<path d="M240.02,0.022c-30.928,0-56,25.072-56,56s25.072,56,56,56c30.928,0,56-25.072,56-56
			C295.983,25.11,270.933,0.06,240.02,0.022z M217.231,23.117c6.695-4.633,14.647-7.108,22.789-7.095
			c8.098,0,16.003,2.476,22.655,7.095l-55.561,55.561C194.566,60.541,199.095,35.666,217.231,23.117z M261.661,89.732
			c-6.458,4.135-13.972,6.319-21.641,6.29c-7.566-0.018-14.969-2.201-21.335-6.29l55.045-55.045
			C285.598,53.22,280.194,77.865,261.661,89.732z"/>
	</g>
</g>
<g>
	<g>
		<path d="M288.02,128.022h-96c-22.091,0-40,17.909-40,40s17.909,40,40,40h96c22.091,0,40-17.909,40-40
			S310.112,128.022,288.02,128.022z M232.02,192.022h-40c-13.249-0.014-23.986-10.751-24-24c0.014-13.249,10.751-23.986,24-24h40
			V192.022z M288.02,192.022h-40v-48h40c13.255,0,24,10.745,24,24S301.275,192.022,288.02,192.022z"/>
	</g>
</g>
<g>
	<g>
		<path d="M96.025,176.73c-0.144-0.146-0.289-0.29-0.434-0.434c-21.936-21.656-57.205-21.656-79.141,0
			c-21.735,21.495-21.93,56.541-0.434,78.276c0.144,0.146,0.289,0.29,0.434,0.434c10.521,10.438,24.75,16.279,39.57,16.242
			c14.82,0.035,29.049-5.806,39.57-16.242C117.326,233.511,117.52,198.465,96.025,176.73z M48.77,254.572
			c-7.964-1.421-15.308-5.232-21.055-10.925c-15.462-15.277-15.612-40.195-0.335-55.657c0.111-0.112,0.223-0.224,0.335-0.335v0
			c5.747-5.694,13.09-9.506,21.055-10.929V254.572z M84.325,243.647c-5.382,5.308-12.165,8.972-19.555,10.564v-77.124
			c7.39,1.593,14.173,5.259,19.555,10.567c7.5,7.381,11.715,17.469,11.695,27.992C96.038,226.172,91.824,236.262,84.325,243.647z"/>
	</g>
</g>
<g>
	<g>
		<path d="M140.012,82.03l-70-70.016c-16.016-16.016-41.984-16.016-58,0s-16.016,41.984,0,58h0.008l70.008,70
			c16.067,15.957,42.027,15.868,57.984-0.199C155.892,123.827,155.892,98.019,140.012,82.03z M23.34,58.702
			c-9.741-9.773-9.744-25.583-0.008-35.36c9.774-9.744,25.589-9.748,35.367-0.008l29.342,29.345L52.68,88.042L23.34,58.702z
			 M128.7,128.702c-9.777,9.734-25.583,9.734-35.359,0L63.993,99.354l35.361-35.361L128.7,93.342
			C138.443,103.116,138.443,118.929,128.7,128.702z"/>
	</g>
</g>
<g>
	<g>
		<path d="M468.016,12.026c-16.012-16.014-41.974-16.016-57.988-0.004L340.012,82.03c-16.01,15.998-16.019,41.945-0.021,57.955
			c7.694,7.7,18.136,12.022,29.021,12.014v0c10.873,0.021,21.307-4.292,28.992-11.984l70.008-70
			C484.026,54.003,484.028,28.041,468.016,12.026z M386.692,128.702c-9.764,9.764-25.595,9.764-35.36,0s-9.764-25.595,0-35.36h0
			l29.35-29.346l35.359,35.359L386.692,128.702z M456.7,58.702l-29.345,29.342l-35.36-35.36l29.345-29.343
			c9.764-9.764,25.596-9.764,35.36,0C466.465,33.107,466.465,48.938,456.7,58.702z"/>
	</g>
</g>
<g>
</g>
<g>
</g>
<g>
</g>
<g>
</g>
<g>
</g>
<g>
</g>
<g>
</g>
<g>
</g>
<g>
</g>
<g>
</g>
<g>
</g>
<g>
</g>
<g>
</g>
<g>
</g>
<g>
</g>
</svg>
