<?xml version="1.0" encoding="iso-8859-1"?>
<!-- Generator: Adobe Illustrator 19.0.0, SVG Export Plug-In . SVG Version: 6.00 Build 0)  -->
<svg version="1.1" id="Capa_1" xmlns="http://www.w3.org/2000/svg" xmlns:xlink="http://www.w3.org/1999/xlink" x="0px" y="0px"
	 viewBox="0 0 512 512" style="enable-background:new 0 0 512 512;" xml:space="preserve">
<g>
	<g>
		<path d="M345.882,11.197H44.132c-11.798,0-22.884,4.595-31.209,12.935C4.59,32.465,0,43.549,0,55.34v68.538
			c0,4.142,3.357,7.5,7.5,7.5h65.774v275.896c0,4.142,3.357,7.5,7.5,7.5h166.773c4.143,0,7.5-3.358,7.5-7.5
			c0.001-4.143-3.357-7.501-7.499-7.501H88.274V123.878V55.34c0-0.731-0.02-1.457-0.055-2.179c-0.012-0.239-0.034-0.475-0.05-0.713
			c-0.031-0.481-0.063-0.962-0.11-1.439c-0.027-0.281-0.065-0.56-0.098-0.84c-0.051-0.43-0.101-0.86-0.164-1.286
			c-0.043-0.294-0.095-0.585-0.144-0.877c-0.069-0.407-0.138-0.814-0.218-1.217c-0.059-0.297-0.123-0.592-0.188-0.887
			c-0.086-0.393-0.175-0.785-0.272-1.174c-0.073-0.295-0.15-0.589-0.229-0.882c-0.104-0.385-0.213-0.767-0.327-1.148
			c-0.086-0.289-0.174-0.576-0.267-0.862c-0.123-0.381-0.252-0.759-0.385-1.136c-0.098-0.278-0.196-0.556-0.299-0.831
			c-0.143-0.381-0.295-0.758-0.448-1.134c-0.107-0.263-0.212-0.527-0.324-0.788c-0.168-0.39-0.345-0.773-0.524-1.157
			c-0.111-0.24-0.219-0.481-0.334-0.719c-0.204-0.419-0.42-0.83-0.636-1.241c-0.103-0.195-0.2-0.393-0.305-0.587
			c-0.657-1.201-1.367-2.369-2.129-3.5c-0.12-0.178-0.248-0.351-0.371-0.528c-0.266-0.382-0.532-0.764-0.81-1.138
			c-0.157-0.211-0.321-0.417-0.482-0.625c-0.255-0.33-0.509-0.66-0.773-0.983c-0.178-0.219-0.362-0.432-0.545-0.647
			c-0.176-0.208-0.347-0.42-0.527-0.625h268.622c16.069,0,29.143,13.073,29.143,29.143v85.032c0,4.142,3.357,7.5,7.5,7.5
			s7.5-3.358,7.5-7.5V55.34C390.025,31,370.222,11.197,345.882,11.197z M73.275,116.378H15V55.34c0-7.785,3.029-15.101,8.534-20.606
			c5.496-5.505,12.81-8.537,20.598-8.537c16.069,0,29.143,13.073,29.143,29.143V116.378z"/>
	</g>
</g>
<g>
	<g>
		<path d="M382.525,382.386c-4.143,0-7.5,3.358-7.5,7.5v9.887h-2.721c-4.143,0-7.5,3.358-7.5,7.5c0,4.142,3.357,7.5,7.5,7.5h10.221
			c4.143,0,7.5-3.358,7.5-7.5v-17.387C390.025,385.744,386.668,382.386,382.525,382.386z"/>
	</g>
</g>
<g>
	<g>
		<path d="M273.559,210.709l-12.616-16.395l-13.726-17.841l26.342-34.233c2.525-3.283,1.912-7.992-1.37-10.518
			c-3.285-2.528-7.993-1.912-10.519,1.37l-23.919,31.083l-23.247-30.21c18.91-2.817,33.463-19.16,33.463-38.841
			c0-21.656-17.618-39.275-39.274-39.275h-32.365c-4.143,0-7.5,3.358-7.5,7.5v63.55v63.705c0,4.142,3.357,7.5,7.5,7.5
			s7.5-3.358,7.5-7.5v-56.205h12.08l32.377,42.08l-26.34,34.23c-2.525,3.283-1.912,7.992,1.37,10.518
			c1.363,1.049,2.973,1.557,4.568,1.557c2.249,0,4.473-1.007,5.95-2.927l23.919-31.083l14.652,19.04l9.262,12.039
			c0.369,0.48,0.786,0.903,1.237,1.268c1.355,1.096,3.029,1.663,4.718,1.663c1.596,0,3.205-0.508,4.568-1.557
			C275.471,218.701,276.085,213.992,273.559,210.709z M199.85,119.399c-0.005,0-0.01,0-0.016,0h-16.008v-48.55h24.865
			c13.385,0,24.274,10.89,24.274,24.275c0.002,13.385-10.888,24.275-24.273,24.275H199.85z"/>
	</g>
</g>
<g>
	<g>
		<path d="M308.955,261.992H129.916c-4.143,0-7.5,3.358-7.5,7.5c0,4.142,3.357,7.5,7.5,7.5h179.039c4.143,0,7.5-3.358,7.5-7.5
			C316.455,265.35,313.098,261.992,308.955,261.992z"/>
	</g>
</g>
<g>
	<g>
		<path d="M283.978,313.121H129.916c-4.143,0-7.5,3.358-7.5,7.5c0,4.142,3.357,7.5,7.5,7.5h154.062c4.143,0,7.5-3.358,7.5-7.5
			C291.478,316.479,288.121,313.121,283.978,313.121z"/>
	</g>
</g>
<g>
	<g>
		<path d="M508.25,201.049l-17.485-10.095c8.539-22.028-0.02-47.672-21.102-59.844c-23.293-13.448-53.182-5.438-66.628,17.853
			l-97.521,168.913c-0.995,1.723-1.264,3.77-0.749,5.691s1.772,3.559,3.494,4.554l2.941,1.698l-51.401,100.445
			c-0.127,0.247-0.234,0.503-0.332,0.762c-0.029,0.076-0.053,0.153-0.08,0.23c-0.068,0.198-0.127,0.397-0.178,0.6
			c-0.02,0.081-0.042,0.162-0.06,0.244c-0.06,0.277-0.109,0.556-0.137,0.839l-5.925,59.623c-0.036,0.367-0.046,0.732-0.029,1.092
			c0.1,2.166,1.137,4.186,2.838,5.531c0.283,0.224,0.585,0.43,0.904,0.614c1.164,0.672,2.458,1.005,3.749,1.005
			c1.539,0,3.073-0.473,4.375-1.408l48.672-34.943c0.342-0.246,0.65-0.525,0.941-0.819c0.073-0.074,0.143-0.148,0.213-0.225
			c0.279-0.306,0.542-0.626,0.765-0.971c0.001-0.001,0.002-0.002,0.003-0.004l0.001-0.002c0.003-0.004,0.005-0.008,0.008-0.013
			l61.279-94.721l2.941,1.698c1.182,0.682,2.471,1.006,3.743,1.006c2.592,0,5.113-1.346,6.502-3.752l93.771-162.417l10.489,6.056
			l-41.976,72.705c-2.071,3.587-0.842,8.174,2.745,10.245c1.182,0.682,2.471,1.006,3.743,1.006c2.592,0,5.113-1.346,6.502-3.751
			l45.726-79.2C513.066,207.707,511.837,203.12,508.25,201.049z M269.655,477.535l3.135-31.549l22.619,13.059L269.655,477.535z
			 M306.798,448.301l-30.398-17.55l47.806-93.422l39.595,22.86L306.798,448.301z M474.524,190.239l-93.77,162.417l-2.561-1.478
			c-0.02-0.012-0.038-0.026-0.058-0.037l-53.26-30.75c-0.025-0.014-0.051-0.025-0.076-0.039l-2.546-1.47l93.771-162.418
			c9.312-16.128,30.009-21.673,46.138-12.362C478.29,153.413,483.836,174.111,474.524,190.239z"/>
	</g>
</g>
<g>
</g>
<g>
</g>
<g>
</g>
<g>
</g>
<g>
</g>
<g>
</g>
<g>
</g>
<g>
</g>
<g>
</g>
<g>
</g>
<g>
</g>
<g>
</g>
<g>
</g>
<g>
</g>
<g>
</g>
</svg>
