<?xml version="1.0" encoding="iso-8859-1"?>
<!-- Generator: Adobe Illustrator 19.0.0, SVG Export Plug-In . SVG Version: 6.00 Build 0)  -->
<svg version="1.1" id="Capa_1" xmlns="http://www.w3.org/2000/svg" xmlns:xlink="http://www.w3.org/1999/xlink" x="0px" y="0px"
	 viewBox="0 0 489.792 489.792" style="enable-background:new 0 0 489.792 489.792;" xml:space="preserve">
<g>
	<g>
		<g>
			<ellipse cx="348.696" cy="394.521" rx="15.5" ry="16.7"/>
			<path d="M166.796,332.721c-7.4-7.4-16.3-12.1-25.7-12.1c-9.7,0-18.7,4.7-26,12.4
				C129.096,330.021,146.896,328.421,166.796,332.721z"/>
			<path d="M489.396,449.721c-12-82.8-60.6-152.8-127.5-190.9c3.1,23.3,6.2,63-1.2,98c14.8,5.4,25.7,20.2,25.7,37.7
				c0,22.2-16.7,39.6-37.7,39.6s-37.7-17.8-37.7-39.6c0-19,12.4-34.6,29.2-38.9c10.1-41.2,1.9-94.5-0.4-108.1
				c-2.7-1.2-5.4-2.3-8.2-3.5c-22.5,23.3-52.9,37.7-86.7,37.7c-33,0-63.4-14-85.5-36.5c-3.5,7.8-10.1,26.8-8.9,55.2
				c33,6.6,58.3,47,58.3,95.6c0,17.9-3.5,35.8-10.1,50.9c-3.6,11.4-18.7,16-25.7,16c-10.5,0-19-8.9-19-20.2c0-11.3,8.6-20.2,19-20.2
				c3.1,0,7.4,0.8,12.1,2.7c8-23.1,1.9-54.4-1.9-64.9c-37.3-17.1-71.5-5.4-84,0c-3.5,10.5-10.2,39.1-1.9,64.9
				c4.7-1.9,8.9-2.7,12.1-2.7c10.5,0,19,8.9,19,20.2c0,11.3-8.6,20.2-19,20.2c-6.6,0-21.4-4.3-25.3-14.8l0,0
				c-7-15.5-10.5-33.4-10.5-52.1c0-48.2,24.9-88.2,57.1-95.6c-0.8-18.7,1.6-34.2,4.3-45.5c-70.9,37.4-122.2,109.3-134.6,194.8
				c-3.1,21,12.4,40,32.3,40h424.1C476.996,489.721,492.496,470.721,489.396,449.721z"/>
			<path d="M244.896,264.321c58.3,0,105.7-50.1,105.7-112c0-8.6-0.8-16.7-2.7-24.9c0,0-49.7-15.5-103-15.5
				c-53.2,0-102.6,15.5-102.6,15.5c-1.6,8.2-2.7,16.3-2.7,24.9C139.196,214.521,186.596,264.321,244.896,264.321z"/>
			<path d="M339.396,103.421c7.4-29.2,14.4-58.7,21.4-87.9c-75.9-20.6-155.9-20.6-231.7,0c7,29.2,14.4,58.7,21.4,87.9
				C212.196,86.621,277.596,86.621,339.396,103.421z M216.496,36.121h19.8v-21h17.1v21h19.8v17.9h-19.8v21h-17.1v-21h-19.8
				L216.496,36.121z"/>
		</g>
	</g>
</g>
<g>
</g>
<g>
</g>
<g>
</g>
<g>
</g>
<g>
</g>
<g>
</g>
<g>
</g>
<g>
</g>
<g>
</g>
<g>
</g>
<g>
</g>
<g>
</g>
<g>
</g>
<g>
</g>
<g>
</g>
</svg>
