<?xml version="1.0" encoding="iso-8859-1"?>
<!-- Generator: Adobe Illustrator 19.0.0, SVG Export Plug-In . SVG Version: 6.00 Build 0)  -->
<svg version="1.1" id="Layer_1" xmlns="http://www.w3.org/2000/svg" xmlns:xlink="http://www.w3.org/1999/xlink" x="0px" y="0px"
	 viewBox="0 0 513.829 513.829" style="enable-background:new 0 0 513.829 513.829;" xml:space="preserve">
<g>
	<g>
		<path d="M462.628,0.915H49.371C21.943,0.915,0,22.857,0,50.285v415.086c0,25.6,21.943,47.543,49.371,47.543h415.086
			c27.429,0,49.372-21.943,49.372-49.372V50.285C512,22.857,490.057,0.915,462.628,0.915z M475.429,463.543
			c0,7.314-5.485,12.8-12.8,12.8H49.371c-7.314,0-12.8-5.485-12.8-12.8V50.285c0-7.314,5.486-12.8,12.8-12.8h415.086
			c5.485,0,10.971,5.486,10.971,12.8V463.543z"/>
	</g>
</g>
<g>
	<g>
		<path d="M429.715,143.543h-204.8c-10.971,0-18.286,7.314-18.286,18.286s7.314,18.286,18.286,18.286h206.628
			c10.971,0,18.286-7.314,18.286-18.286S440.686,143.543,429.715,143.543z"/>
	</g>
</g>
<g>
	<g>
		<path d="M429.715,255.085h-204.8c-10.971,0-18.286,7.314-18.286,18.286s7.314,18.286,18.286,18.286h206.628
			c10.971,0,18.286-7.314,18.286-18.286C448,262.4,440.686,255.085,429.715,255.085z"/>
	</g>
</g>
<g>
	<g>
		<path d="M429.715,364.8h-204.8c-10.971,0-18.286,7.314-18.286,18.286s7.314,18.286,18.286,18.286h206.628
			c10.971,0,18.286-7.314,18.286-18.286S440.686,364.8,429.715,364.8z"/>
	</g>
</g>
<g>
	<g>
		<path d="M133.486,106.972c-27.429,0-51.2,21.943-51.2,51.2s21.943,51.2,51.2,51.2s51.2-21.943,51.2-51.2
			S160.914,106.972,133.486,106.972z M133.486,170.972c-7.314,0-14.629-5.486-14.629-14.629c0-7.314,5.486-14.629,14.629-14.629
			c7.314,0,14.629,5.486,14.629,14.629C148.115,165.486,140.799,170.972,133.486,170.972z"/>
	</g>
</g>
<g>
	<g>
		<path d="M133.486,218.514c-27.429,0-51.2,21.943-51.2,51.2c0,27.429,21.943,51.2,51.2,51.2s51.2-21.943,51.2-51.2
			C184.686,240.457,160.914,218.514,133.486,218.514z M133.486,282.514c-7.314,0-14.629-5.485-14.629-14.629
			s5.486-14.629,14.629-14.629c7.314,0,14.629,5.485,14.629,14.629S140.799,282.514,133.486,282.514z"/>
	</g>
</g>
<g>
	<g>
		<path d="M133.486,330.057c-27.429,0-51.2,21.943-51.2,51.2c0,27.429,21.943,51.2,51.2,51.2s51.2-21.943,51.2-51.2
			C184.686,352,160.914,330.057,133.486,330.057z M133.486,394.058c-7.314,0-14.629-5.485-14.629-14.629
			c0-7.314,5.486-14.629,14.629-14.629c7.314,0,14.629,5.485,14.629,14.629C148.115,386.744,140.799,394.058,133.486,394.058z"/>
	</g>
</g>
<g>
</g>
<g>
</g>
<g>
</g>
<g>
</g>
<g>
</g>
<g>
</g>
<g>
</g>
<g>
</g>
<g>
</g>
<g>
</g>
<g>
</g>
<g>
</g>
<g>
</g>
<g>
</g>
<g>
</g>
</svg>
