<?xml version="1.0" encoding="iso-8859-1"?>
<!-- Generator: Adobe Illustrator 21.0.0, SVG Export Plug-In . SVG Version: 6.00 Build 0)  -->
<svg version="1.1" id="Capa_1" xmlns="http://www.w3.org/2000/svg" xmlns:xlink="http://www.w3.org/1999/xlink" x="0px" y="0px" 
	 viewBox="0 0 512 512" style="enable-background:new 0 0 512 512;" xml:space="preserve"  width="256" height="256" >
<g>
	<g>
		<path d="M405.731,125.651h-46.698v0.021H82.881v58.6H0v30h82.881v30.004H0v30h82.881v73.196h38.751
			c4.43,22.143,23.992,38.878,47.389,38.878c23.397,0,42.958-16.735,47.389-38.878h163.792
			c4.431,22.143,23.993,38.878,47.389,38.878s42.958-16.735,47.388-38.878H512V234.211L405.731,125.651z M169.021,356.35
			c-10.133,0-18.376-8.255-18.376-18.402c0-10.147,8.243-18.402,18.376-18.402s18.376,8.255,18.376,18.402
			C187.397,348.095,179.154,356.35,169.021,356.35z M344.055,317.473H212.802c-7.717-16.48-24.435-27.926-43.781-27.926
			s-36.064,11.446-43.781,27.926h-12.401v-43.196h30.957v-30h-30.957v-30.004h90.875v-30h-90.875v-28.6h231.216V317.473z
			 M374.012,155.65h19.136l68.215,69.686h-87.351V155.65z M427.59,356.35c-10.133,0-18.377-8.255-18.377-18.402
			c0-10.147,8.244-18.402,18.377-18.402c10.133,0,18.376,8.255,18.376,18.402C445.966,348.095,437.723,356.35,427.59,356.35z
			 M482.043,317.473h-10.671c-7.717-16.48-24.435-27.926-43.781-27.926s-36.065,11.446-43.782,27.926h-9.797v-62.135h108.031
			V317.473z"/>
	</g>
</g>
<g>
	<g>
		<rect y="304.28" width="49.976" height="30"/>
	</g>
</g>
<g>
</g>
<g>
</g>
<g>
</g>
<g>
</g>
<g>
</g>
<g>
</g>
<g>
</g>
<g>
</g>
<g>
</g>
<g>
</g>
<g>
</g>
<g>
</g>
<g>
</g>
<g>
</g>
<g>
</g>
</svg>
