<?xml version="1.0" encoding="iso-8859-1"?>
<!-- Generator: Adobe Illustrator 19.0.0, SVG Export Plug-In . SVG Version: 6.00 Build 0)  -->
<svg version="1.1" id="Capa_1" xmlns="http://www.w3.org/2000/svg" xmlns:xlink="http://www.w3.org/1999/xlink" x="0px" y="0px"
	 viewBox="0 0 480 480" style="enable-background:new 0 0 480 480;" xml:space="preserve">
<g>
	<g>
		<path d="M135.996,0h-33.44c-25.215-0.106-47.198,17.128-53.112,41.64L5.66,54.992c-4.224,1.296-6.597,5.771-5.301,9.995
			c1.03,3.356,4.127,5.648,7.637,5.653h40V168c0,4.418,3.582,8,8,8h69.84c36.235,0.244,65.83-28.886,66.16-65.12V56
			C191.961,25.087,166.909,0.036,135.996,0z M175.996,110.88c-0.316,27.403-22.756,49.378-50.16,49.12h-61.84V72h112V110.88z
			 M63.996,56v-2.32c-0.028-1.416,0.065-2.832,0.28-4.232c0-0.128,0-0.256,0.056-0.384C66.93,29.99,83.307,15.824,102.556,16h33.44
			c22.08,0.026,39.974,17.92,40,40H63.996z"/>
	</g>
</g>
<g>
	<g>
		<path d="M471.996,152h-232c-4.418,0-8,3.582-8,8v163.44l-40-39.496V264c-0.044-39.746-32.254-71.956-72-72h-64
			c-4.418,0-8,3.582-8,8v272c0,4.418,3.582,8,8,8h128c4.418,0,8-3.582,8-8v-90.752c20,18.672,20.616,18.752,24,18.752h124.688
			l29.656,29.656c3.124,3.123,8.188,3.123,11.312,0l40-40c3.123-3.124,3.123-8.188,0-11.312L395.308,352h76.688c4.418,0,8-3.582,8-8
			V160C479.996,155.582,476.414,152,471.996,152z M335.996,168h40v168h-40V168z M247.996,168h72v168h-72V168z M63.996,208h56
			c30.913,0.035,55.965,25.087,56,56v4.144l-42.4-41.84c-1.49-1.477-3.503-2.305-5.6-2.304h-64V208z M63.996,240h44.688
			L82.34,266.344c-3.125,3.124-3.126,8.189-0.002,11.314c0.048,0.048,0.097,0.095,0.146,0.142c0,0,30.352,28.888,61.512,58.304
			v27.616l-80,53.336V240z M175.996,464h-16v-48h16V464z M175.996,400h-24c-4.418,0-8,3.582-8,8v56h-80v-27.72l92.44-61.6
			c2.232-1.489,3.568-3.997,3.56-6.68v-16.8c5.488,5.168,10.88,10.232,15.92,14.968l0.08,0.08V400z M404.684,384l-28.688,28.688
			l-26.344-26.344c-1.5-1.5-3.534-2.344-5.656-2.344H218.764c-2.856-2.48-10.232-9.168-29.288-27.032l-2.608-2.456
			c-8.608-8.08-18.12-17.008-27.704-26.088c-24.216-22.848-48.744-46.144-59.712-56.568l28.544-28.584L232.476,346.4
			c1.009,3.312,4.057,5.582,7.52,5.6h132.688L404.684,384z M463.996,336h-72V168h72V336z"/>
	</g>
</g>
<g>
	<g>
		<rect x="407.996" y="184" width="40" height="16"/>
	</g>
</g>
<g>
	<g>
		<rect x="263.996" y="304" width="16" height="16"/>
	</g>
</g>
<g>
</g>
<g>
</g>
<g>
</g>
<g>
</g>
<g>
</g>
<g>
</g>
<g>
</g>
<g>
</g>
<g>
</g>
<g>
</g>
<g>
</g>
<g>
</g>
<g>
</g>
<g>
</g>
<g>
</g>
</svg>
