<?xml version="1.0" encoding="iso-8859-1"?>
<!-- Generator: Adobe Illustrator 19.0.0, SVG Export Plug-In . SVG Version: 6.00 Build 0)  -->
<svg version="1.1" id="Layer_1" xmlns="http://www.w3.org/2000/svg" xmlns:xlink="http://www.w3.org/1999/xlink" x="0px" y="0px"
	 viewBox="0 0 513.835 513.835" style="enable-background:new 0 0 513.835 513.835;" xml:space="preserve" width="256" height="256">
<g>
	<g>
		<g>
			<path d="M96.003,107.584c29.461,0,53.333-23.872,53.333-53.333c0-29.461-23.872-53.333-53.333-53.333
				c-29.461,0-53.333,23.872-53.333,53.333C42.67,83.712,66.542,107.584,96.003,107.584z"/>
			<path d="M191.769,304.619l-14.123-123.904c-3.392-29.547-26.773-51.819-54.4-51.819H68.761c-27.648,0-51.051,22.272-54.4,51.819
				L0.238,304.619c-1.173,10.368,2.027,20.651,8.768,28.224c5.803,6.507,13.525,10.283,21.888,10.773L42.67,503.019
				c0.427,5.568,5.056,9.877,10.645,9.877h85.333c5.589,0,10.219-4.309,10.645-9.877l11.776-159.403
				c8.384-0.469,16.107-4.267,21.909-10.773C189.763,325.291,192.942,314.987,191.769,304.619z"/>
			<path d="M247.171,128.917c29.461,0,53.333-23.872,53.333-53.333c0-29.461-23.872-53.333-53.333-53.333
				s-53.333,23.872-53.333,53.333C193.838,105.045,217.71,128.917,247.171,128.917z"/>
			<path d="M219.95,148.821c-5.525,0-11.051,0.896-16.875,2.731c-5.525,1.749-8.64,7.573-7.04,13.141
				c1.28,4.395,2.283,8.917,2.816,13.611l7.979,69.995c0.363,2.965,1.92,5.653,4.331,7.424c2.411,1.771,5.483,2.411,8.405,1.835
				c2.048-0.427,4.139-0.64,6.293-0.64h42.667c11.264,0,21.845,6.144,27.584,16.021c1.92,3.285,5.44,5.312,9.237,5.312h22.016
				c0.171,0.021,0.32,0,0.427,0c5.888,0,10.667-4.779,10.667-10.667c0-1.515-0.32-2.965-0.875-4.267l-8.768-67.819
				c-3.435-26.624-26.816-46.677-54.379-46.677H219.95z"/>
			<path d="M280.132,467.349L245.55,329.003c-1.195-4.757-5.461-8.085-10.347-8.085h-9.365c-1.088,0-2.133-0.171-4.224-0.469
				c-5.163-0.725-9.877,2.304-11.499,7.104c-2.56,7.488-6.336,14.059-11.179,19.499c-2.645,2.965-5.931,5.781-10.048,8.555
				c-3.179,2.176-4.949,5.867-4.629,9.707l9.621,115.051c0.448,5.525,5.077,9.771,10.624,9.771h69.077
				c3.755,0,7.211-1.963,9.152-5.163c1.92-3.2,2.048-7.189,0.277-10.496C281.582,471.808,280.665,469.525,280.132,467.349z"/>
			<path d="M511.598,303.68c-2.027-2.581-5.141-4.096-8.427-4.096H282.179l-3.307-13.248c-1.195-4.757-5.483-8.085-10.368-8.085
				h-42.667c-5.888,0-10.667,4.779-10.667,10.667s4.779,10.667,10.667,10.667h34.325l40.64,162.581
				c1.216,4.864,5.568,8.085,10.368,8.085c0.853,0,1.728-0.107,2.581-0.32c5.739-1.429,9.195-7.211,7.765-12.928l-7.723-30.912
				l169.28-19.925c4.395-0.512,8.021-3.712,9.109-8l21.333-85.333C514.308,309.653,513.604,306.261,511.598,303.68z"/>
			<path d="M439.171,448.917c-17.664,0-32,14.336-32,32c0,17.664,14.336,32,32,32s32-14.336,32-32
				C471.171,463.253,456.857,448.917,439.171,448.917z"/>
			<path d="M353.838,448.917c-17.664,0-32,14.336-32,32c0,17.664,14.336,32,32,32c17.664,0,32-14.336,32-32
				C385.838,463.253,371.523,448.917,353.838,448.917z"/>
		</g>
	</g>
</g>
<g>
</g>
<g>
</g>
<g>
</g>
<g>
</g>
<g>
</g>
<g>
</g>
<g>
</g>
<g>
</g>
<g>
</g>
<g>
</g>
<g>
</g>
<g>
</g>
<g>
</g>
<g>
</g>
<g>
</g>
</svg>
