<?xml version="1.0" encoding="iso-8859-1"?>
<!-- Generator: Adobe Illustrator 16.0.0, SVG Export Plug-In . SVG Version: 6.00 Build 0)  -->
<!DOCTYPE svg PUBLIC "-//W3C//DTD SVG 1.1//EN" "http://www.w3.org/Graphics/SVG/1.1/DTD/svg11.dtd">
<svg version="1.1" id="Capa_1" xmlns="http://www.w3.org/2000/svg" xmlns:xlink="http://www.w3.org/1999/xlink" x="0px" y="0px"
	  viewBox="0 0 183.777 183.777" style="enable-background:new 0 0 183.777 183.777;"
	 xml:space="preserve"  width="256" height="256" >
<g>
	<g>
		<path d="M98.415,115.826c-3.27-0.355-6.276-2.008-8.378-4.646c-2.101-2.633-3.053-5.921-2.683-9.268l1.453-13.062h-0.042V73.347
			h1.761l0.797-7.16h-6.648V54.295H67.817v11.891h-8.422v2.342h-9.376v91.964h-4.085V50.619h-9.737V38.747h-9.633V18.479h-2.407
			v20.268h-9.634v11.872H4.779v114.696h41.154h4.085h52.468v-49.719C101.173,115.87,99.811,115.996,98.415,115.826z M16.932,41.149
			h16.854v9.464H16.932V41.149z M18.494,142.589H9.591v-15.509h8.903V142.589z M18.494,124.674H9.591v-15.506h8.903V124.674z
			 M18.494,106.758H9.591V91.25h8.903V106.758z M18.494,70.936H9.591V55.434h4.925h3.978V70.936z M29.808,160.493h-8.902v-15.502
			h8.902V160.493z M29.808,142.589h-8.902v-15.509h8.902V142.589z M29.808,88.851h-8.902V73.347h8.902V88.851z M29.808,70.936
			h-8.902V55.434h8.902V70.936z M41.116,142.589h-8.898v-15.509h8.903v15.509H41.116z M41.116,124.674h-8.898v-15.506h8.903v15.506
			H41.116z M41.116,106.758h-8.898V91.25h8.903v15.508H41.116z M41.116,88.851h-8.898V73.347h8.903v15.504H41.116z M70.23,56.704
			h12.042v8.284H70.23V56.704z M63.736,142.589h-8.897v-15.509h8.897V142.589z M63.736,106.758h-8.897V91.25h8.897V106.758z
			 M75.05,160.493h-8.905v-15.502h8.905V160.493z M75.05,124.674h-8.905v-15.506h8.905V124.674z M75.05,88.851h-8.905V73.347h8.905
			V88.851z M86.358,160.493h-8.906v-15.502h8.906V160.493z M86.358,142.589h-8.906v-15.509h8.906V142.589z M86.358,124.674h-8.906
			v-15.506h8.906V124.674z M86.358,106.758h-8.906V91.25h8.906V106.758z M97.671,142.589h-8.905v-15.509h8.905V142.589z"/>
		<path d="M133.502,38.837c9.772,0,17.707-11.343,17.707-21.127c0-9.781-7.935-17.71-17.707-17.71
			c-9.782,0-17.719,7.929-17.719,17.71C115.783,27.494,123.72,38.837,133.502,38.837z"/>
		<path d="M176.205,113.61h-5.023v-4.739c1.961-1.434,3.185-3.759,2.9-6.342l-5.604-50.43c-0.038-0.342-0.219-0.61-0.307-0.93
			c-0.123-0.514-0.24-1.021-0.481-1.491c-0.179-0.353-0.443-0.626-0.678-0.941c-0.317-0.413-0.603-0.824-1.008-1.171
			c-0.317-0.263-0.688-0.424-1.045-0.632c-0.355-0.208-0.656-0.493-1.056-0.646c-0.635-0.229-14.731-5.277-27.688-5.945l-1.784,3.56
			h-0.043l4.717,36.741l-5.604,9.787l-5.604-9.787l4.717-36.741h-0.055l-1.771-3.56c-12.957,0.662-27.053,5.716-27.684,5.945
			c-0.411,0.153-0.713,0.443-1.068,0.656c-0.35,0.208-0.72,0.359-1.027,0.622c-0.416,0.347-0.71,0.774-1.041,1.198
			c-0.219,0.304-0.468,0.566-0.65,0.903c-0.246,0.477-0.354,0.998-0.498,1.518c-0.075,0.315-0.252,0.583-0.295,0.908l-5.601,50.431
			c-0.428,3.852,2.338,7.31,6.186,7.737c0.265,0.032,0.521,0.043,0.783,0.043c3.525,0,6.555-2.648,6.948-6.227l5.107-45.938
			c0.595-0.175,1.246-0.364,1.942-0.566v47.806l-5.57,69.32c-0.374,4.628,3.073,8.68,7.703,9.05
			c0.229,0.022,0.449,0.027,0.679,0.027c4.333,0,8.011-3.333,8.366-7.731l5.039-62.655c1.04,0.461,2.185,0.733,3.389,0.733
			c1.209,0,2.358-0.272,3.386-0.733l5.046,62.655c0.351,4.398,4.027,7.731,8.363,7.731c0.229,0,0.452-0.005,0.682-0.027
			c4.629-0.37,8.073-4.422,7.705-9.05l-5.576-69.32V57.573c0.696,0.197,1.346,0.386,1.948,0.566l5.1,45.938
			c0.377,3.376,3.108,5.833,6.358,6.123v3.398h-5.023c-1.543,0-2.802,1.263-2.802,2.802v42.495c0,1.537,1.259,2.801,2.802,2.801
			h14.711c1.541,0,2.802-1.264,2.802-2.801v-42.495C179.007,114.869,177.748,113.61,176.205,113.61z"/>
	</g>
</g>
<g>
</g>
<g>
</g>
<g>
</g>
<g>
</g>
<g>
</g>
<g>
</g>
<g>
</g>
<g>
</g>
<g>
</g>
<g>
</g>
<g>
</g>
<g>
</g>
<g>
</g>
<g>
</g>
<g>
</g>
</svg>
