<?xml version="1.0" encoding="iso-8859-1"?>
<!-- Generator: Adobe Illustrator 19.0.0, SVG Export Plug-In . SVG Version: 6.00 Build 0)  -->
<svg version="1.1" id="Layer_1" xmlns="http://www.w3.org/2000/svg" xmlns:xlink="http://www.w3.org/1999/xlink" x="0px" y="0px"
	 viewBox="0 0 512 512" style="enable-background:new 0 0 512 512;" xml:space="preserve">
<g>
	<g>
		<path d="M175.394,65.229c1.697,20.734,19.049,37.034,40.221,37.034c21.171,0,38.524-16.301,40.221-37.034H175.394z"/>
	</g>
</g>
<g>
	<g>
		<path d="M261.237,42.607h-2.302c-3.912-14.769-15.177-26.536-29.637-31.169v10.05c0,2.595-2.104,4.699-4.699,4.699h-3.637V5.558
			c0-3.069-2.489-5.558-5.557-5.558c-3.069,0-5.558,2.489-5.558,5.558v20.631h-3.637c-2.595,0-4.699-2.104-4.699-4.699v-9.914
			c-14.257,4.726-25.339,16.408-29.214,31.032h-2.725c-3.178,0-5.753,2.575-5.753,5.753c-0.001,3.178,2.574,5.753,5.752,5.753
			c42.056,0,50.049,0,91.667,0c3.178,0,5.753-2.575,5.753-5.753S264.414,42.607,261.237,42.607z"/>
	</g>
</g>
<g>
	<g>
		<path d="M394.857,89.761c-0.8-1.477-2.183-2.553-3.811-2.965l-17.389-4.407c-1.63-0.412-3.357-0.126-4.764,0.793
			c-1.407,0.918-2.367,2.382-2.648,4.039l-13.051,77.325c-3.398,0.457-6.719,1.795-9.587,4.098l-29.537,23.734l0.029-31.267
			c0-0.039,0-0.077,0-0.116c-0.127-25.289-20.804-45.864-46.094-45.864h-21.758c-2.534,6.621-20.488,53.526-22.955,59.97
			l5.429-25.569c0.381-1.795,0.104-3.668-0.78-5.276l-7.454-13.557l6.627-12.052c0.987-1.795-0.313-3.998-2.364-3.998h-18.188
			c-2.049,0-3.352,2.201-2.364,3.998l6.627,12.052l-7.482,13.607c-0.868,1.578-1.151,3.411-0.8,5.177l4.746,25.618
			c-4.342-11.134-18.321-48.7-22.715-59.969h-21.344c-25.29,0-45.967,20.574-46.094,45.864l-0.719,143.1
			c-0.054,10.757,8.623,19.521,19.38,19.576c0.033,0,0.067,0,0.1,0c10.712,0,19.422-8.656,19.476-19.381l0.719-143.1
			c0.011-2.132,1.744-3.851,3.875-3.846c2.131,0.006,3.854,1.734,3.854,3.865l0.009,327.417c0,12.909,10.465,23.374,23.374,23.374
			s23.374-10.465,23.374-23.374v-186.83h10.092v186.83c0,12.909,10.465,23.374,23.374,23.374c12.909,0,23.374-10.465,23.374-23.374
			c0-309.072-0.413-132.171-0.423-327.342c0-2.225,1.784-4.039,4.008-4.077c2.224-0.038,4.069,1.715,4.144,3.938
			c0,0.001,0,0.001,0,0.002l-0.067,71.879c-0.007,7.498,4.292,14.334,11.052,17.578c6.788,3.257,14.805,2.301,20.627-2.378
			l30.113-24.196l-20.514,60.047c-1.136,3.323,0.809,6.915,4.216,7.778l17.391,4.407c3.404,0.863,6.827-1.366,7.411-4.832
			l14.495-85.881l8.142-6.542c8.385-6.738,9.721-18.999,2.983-27.384c-0.47-0.585-0.973-1.127-1.493-1.643l25.759-75.408
			C395.804,92.983,395.658,91.238,394.857,89.761z"/>
	</g>
</g>
<g>
</g>
<g>
</g>
<g>
</g>
<g>
</g>
<g>
</g>
<g>
</g>
<g>
</g>
<g>
</g>
<g>
</g>
<g>
</g>
<g>
</g>
<g>
</g>
<g>
</g>
<g>
</g>
<g>
</g>
</svg>
