<?xml version="1.0" encoding="iso-8859-1"?>
<!-- Generator: Adobe Illustrator 19.0.0, SVG Export Plug-In . SVG Version: 6.00 Build 0)  -->
<svg version="1.1" id="Capa_1" xmlns="http://www.w3.org/2000/svg" xmlns:xlink="http://www.w3.org/1999/xlink" x="0px" y="0px"
	 viewBox="0 0 511.999 511.999" style="enable-background:new 0 0 511.999 511.999;" xml:space="preserve">
<g>
	<g>
		<path d="M501.488,175.664l-15.123-23.705l-11.258,25.767c-7.997,18.3-19.541,25.98-28.817,32.15
			c-10.513,6.994-10.161,7.137-22.013,21.497c-6.835,8.28-13.29,16.102-19.27,22.102c-4.324,4.339-7.206,6.479-8.917,7.525
			c-0.84-1.557-2.021-4.292-3.25-8.875c-1.201-4.481-4.852-18.117-17.34-22.162c-12.9-4.181-24.079,4.902-33.937,12.913
			c-2.599,2.112-4.032,1.068-4.502,0.724c-1.595-1.166-2.658-4.05-0.857-8.652c0.046-0.118,11.837-23.076,11.891-23.179
			c-13.365-5.745-14.753-7.423-27.855-11.131c27.066-40.382,40.661-61.32,40.661-95.681C360.903,47.083,313.82,0,255.948,0
			S150.993,47.083,150.993,104.955c0,25.865,7.71,44.105,23.067,68.775c-31.036-4.811-62.722-9.542-91.574-13.849
			c-45.39-6.776-46.7-7.016-59.813-8.992c-2.453,14.038-2.764,18.924-11.775,65.896c-10.958,57.12-18.197,94.856,2.215,129.107
			c18.575,31.168,58.058,56.936,150.883,98.471c35.79,16.015,44.084,25.795,52.105,35.253c5.591,6.592,11.928,14.065,24.929,22.03
			l16.541,10.134c4.928-17.305,6.328-18.491,9.835-35.903c0.694-3.441,1.643-8.154,2.331-9.131c0.066-0.059,1.724-1.454,9.624-2.688
			c25.179-3.931,43.856-8.715,57.494-12.209c19.447-4.981,27.594-6.877,33.985-3.759c8.642,4.214,20.086,18.847,38.182,44.374
			l13.849,19.537l11.526-20.991c9.459-17.227,10.393-32.713,3.03-50.211c-10.279-24.424-4.551-34.122,4.939-50.19
			c8.244-13.958,18.504-31.329,18.272-59.683c-0.198-24.128,8.291-43.793,25.237-58.451c7.154-6.19,11.01-16.707,16.076-32.043
			c1.706-5.166,3.471-10.508,4.832-13.222C514.952,210.916,513.221,194.057,501.488,175.664z M255.947,29.988
			c41.337,0,74.968,33.631,74.968,74.968c0,25.914-10.125,41.014-37.183,81.372c-10.46,15.6-22.927,34.194-37.784,57.947
			c-14.915-23.852-27.407-42.49-37.888-58.127c-26.984-40.261-37.081-55.325-37.081-81.192
			C180.979,63.619,214.609,29.988,255.947,29.988z M473.476,231.024c-1.88,5.694-5.354,16.209-7.518,19.027
			c-23.37,20.361-35.577,48.401-35.308,81.119c0.164,20.027-6.768,31.762-14.106,44.188c-9.264,15.685-19.596,33.176-11.856,62.338
			c-7.264-7.929-13.732-13.158-20.705-16.559c-16.557-8.075-31.679-4.2-54.571,1.663c-13.776,3.529-30.921,7.92-54.68,11.63
			c-18.142,2.833-29.941,9.127-34.795,26.931c-0.319-0.375-0.642-0.756-0.969-1.142c-9.713-11.452-20.72-24.431-62.727-43.228
			c-85.339-38.186-122.571-61.617-137.372-86.451c-14.573-24.452-8.872-54.165,1.475-108.105c2.183-11.38,4.582-23.888,6.988-37.491
			c9.771,1.467,20.066,3.005,30.723,4.595c37.223,5.558,79.17,11.821,118.266,18.038c12.619,18.846,28.018,42.056,46.798,73.071
			l12.825,21.181l12.826-21.181c12.786-21.117,24.017-38.623,33.871-53.601c1.531,0.37,2.952,0.723,4.262,1.059
			c-4.335,15.341,0.412,30.903,12.474,39.71c12.301,8.982,28.817,8.31,41.098-1.67c1.136-0.924,2.657-2.159,4.203-3.364
			c2.485,8.519,8.668,25.113,24.505,28.558c22.179,4.824,41.597-20.742,58.219-40.878c10.77-13.047,8.783-11.154,15.494-15.618
			c3.468-2.307,7.705-5.126,12.24-8.809C474.588,227.659,474.036,229.329,473.476,231.024z"/>
	</g>
</g>
<g>
	<g>
		<path d="M255.947,59.975c-24.802,0-44.981,20.178-44.981,44.981c0,24.802,20.178,44.981,44.981,44.981
			c24.802,0,44.981-20.178,44.981-44.981C300.927,80.154,280.749,59.975,255.947,59.975z M255.947,119.949
			c-8.267,0-14.994-6.726-14.994-14.994s6.726-14.994,14.994-14.994s14.994,6.726,14.994,14.994S264.214,119.949,255.947,119.949z"
			/>
	</g>
</g>
<g>
</g>
<g>
</g>
<g>
</g>
<g>
</g>
<g>
</g>
<g>
</g>
<g>
</g>
<g>
</g>
<g>
</g>
<g>
</g>
<g>
</g>
<g>
</g>
<g>
</g>
<g>
</g>
<g>
</g>
</svg>
