<?xml version="1.0" encoding="iso-8859-1"?>
<!-- Generator: Adobe Illustrator 19.0.0, SVG Export Plug-In . SVG Version: 6.00 Build 0)  -->
<svg version="1.1" id="Capa_1" xmlns="http://www.w3.org/2000/svg" xmlns:xlink="http://www.w3.org/1999/xlink" x="0px" y="0px"
	 viewBox="0 0 512 512" style="enable-background:new 0 0 512 512;" xml:space="preserve">
<g>
	<g>
		<path d="M142.897,246.93c-1.86-1.86-4.43-2.93-7.07-2.93c-2.63,0-5.2,1.07-7.07,2.93c-1.86,1.86-2.93,4.44-2.93,7.07
			c0,2.63,1.07,5.21,2.93,7.07c1.87,1.86,4.44,2.93,7.07,2.93s5.21-1.07,7.07-2.93c1.87-1.86,2.93-4.44,2.93-7.07
			C145.827,251.37,144.767,248.79,142.897,246.93z"/>
	</g>
</g>
<g>
	<g>
		<path d="M501.988,195.939H386.743l19.986-19.986c5.431,1.023,10.968,1.54,16.528,1.54c48.934,0,88.744-39.81,88.744-88.744
			c0-48.934-39.81-88.744-88.743-88.744c-48.933,0-88.743,39.81-88.743,88.744c0,5.561,0.517,11.099,1.54,16.528l-90.662,90.662H10
			c-5.523,0-10,4.477-10,10v75.998c0,97.323,73.558,177.775,167.996,188.715v31.343c0,5.523,4.477,10,10,10h155.996
			c5.523,0,10-4.477,10-10v-31.343c94.438-10.94,167.996-91.391,167.996-188.715v-75.998
			C511.988,200.416,507.511,195.939,501.988,195.939z M354.075,115.54c2.502-2.502,3.496-6.141,2.612-9.568
			c-1.442-5.594-2.173-11.388-2.173-17.223c0-37.905,30.838-68.744,68.743-68.744c37.905,0,68.744,30.838,68.744,68.744
			c0,37.906-30.838,68.744-68.744,68.744c-5.833,0-11.628-0.731-17.223-2.174c-3.427-0.886-7.065,0.109-9.568,2.612l-38.007,38.007
			h-84.783L354.075,115.54z M323.992,491.994H187.996v-20h135.997V491.994z M491.988,281.937
			c0,93.736-76.26,169.996-169.996,169.996H189.996C96.26,451.933,20,375.673,20,281.937v-17.938h77.832c5.523,0,10-4.477,10-10
			c0-5.523-4.477-10-10-10H20v-28.062h471.989V281.937z"/>
	</g>
</g>
<g>
	<g>
		<path d="M292.567,323.936h-26.573v-26.573c0-5.523-4.477-10-10-10c-5.523,0-10,4.477-10,10v26.573h-26.573
			c-5.523,0-10,4.477-10,10s4.477,10,10,10h26.573v26.573c0,5.523,4.477,10,10,10c5.523,0,10-4.477,10-10v-26.573h26.573
			c5.523,0,10-4.477,10-10S298.09,323.936,292.567,323.936z"/>
	</g>
</g>
<g>
	<g>
		<path d="M255.994,245.938c-48.522,0-87.998,39.476-87.998,87.998s39.476,87.998,87.998,87.998
			c48.522,0,87.998-39.476,87.998-87.998S304.516,245.938,255.994,245.938z M255.994,401.934c-37.494,0-67.998-30.504-67.998-67.998
			s30.504-67.998,67.998-67.998c37.494,0,67.998,30.504,67.998,67.998S293.488,401.934,255.994,401.934z"/>
	</g>
</g>
<g>
	<g>
		<path d="M423.257,39.378c-27.223,0-49.372,22.148-49.372,49.372c0,5.523,4.477,10,10,10s10-4.477,10-10
			c0-16.196,13.176-29.372,29.372-29.372c5.523,0,10-4.477,10-10C433.257,43.854,428.78,39.378,423.257,39.378z"/>
	</g>
</g>
<g>
</g>
<g>
</g>
<g>
</g>
<g>
</g>
<g>
</g>
<g>
</g>
<g>
</g>
<g>
</g>
<g>
</g>
<g>
</g>
<g>
</g>
<g>
</g>
<g>
</g>
<g>
</g>
<g>
</g>
</svg>
