<?xml version="1.0" encoding="iso-8859-1"?>
<!-- Generator: Adobe Illustrator 18.0.0, SVG Export Plug-In . SVG Version: 6.00 Build 0)  -->
<!DOCTYPE svg PUBLIC "-//W3C//DTD SVG 1.1//EN" "http://www.w3.org/Graphics/SVG/1.1/DTD/svg11.dtd">
<svg version="1.1" id="Capa_1" xmlns="http://www.w3.org/2000/svg" xmlns:xlink="http://www.w3.org/1999/xlink" x="0px" y="0px"
	 viewBox="0 0 53.906 53.906" style="enable-background:new 0 0 53.906 53.906;" xml:space="preserve">
<g>
	<path d="M21.904,25.228c0.552,0,1-0.447,1-1v-3.658c0-0.149-0.012-0.296-0.022-0.442l0.308,0.308
		c0.195,0.195,0.451,0.293,0.707,0.293s0.512-0.098,0.707-0.293l0.324-0.324c-0.011,0.152-0.023,0.304-0.023,0.459v3.658
		c0,0.553,0.448,1,1,1h3.658c3.497,0,6.342-2.845,6.342-6.341v-3.659c0-0.553-0.448-1-1-1h-3.658c-0.828,0-1.617,0.164-2.343,0.454
		c0.428-2.029-0.14-4.229-1.713-5.802l-2.587-2.587c-0.391-0.391-1.023-0.391-1.414,0L20.602,8.88
		c-1.571,1.571-2.14,3.768-1.714,5.795c-0.721-0.286-1.504-0.448-2.326-0.448h-3.658c-0.552,0-1,0.447-1,1v3.659
		c0,3.496,2.845,6.341,6.342,6.341H21.904z M33.904,16.228v2.659c0,2.394-1.948,4.341-4.342,4.341h-2.658v-2.658
		c0-2.395,1.948-4.342,4.342-4.342H33.904z M22.016,10.294l1.88-1.88l1.88,1.88c1.692,1.692,1.692,4.447,0,6.14l-1.88,1.88
		l-1.88-1.88C20.324,14.741,20.324,11.986,22.016,10.294z M13.904,18.887v-2.659h2.658c2.394,0,4.342,1.947,4.342,4.342v2.658
		h-2.658C15.852,23.228,13.904,21.28,13.904,18.887z"/>
	<path d="M26.904,33c-1.654,0-3,1.346-3,3h2c0-0.552,0.449-1,1-1s1,0.448,1,1h2C29.904,34.346,28.558,33,26.904,33z"/>
	<path d="M34.904,34c-1.654,0-3,1.346-3,3h2c0-0.552,0.449-1,1-1s1,0.448,1,1h2C37.904,35.346,36.558,34,34.904,34z"/>
	<path d="M42.419,30.198l3.451-12.94c0.022-0.084,0.034-0.171,0.034-0.258c0-1.103-0.897-2-2-2h-2c-0.365,0-0.705,0.104-1,0.275V1
		c0-0.553-0.448-1-1-1H8.91c-0.005,0-0.01,0.003-0.015,0.003S8.885,0,8.88,0H1.904c-0.552,0-1,0.447-1,1v46
		c0,0.399,0.238,0.761,0.605,0.919l6.976,3C8.612,50.973,8.746,51,8.88,51c0.006,0,0.012-0.002,0.018-0.002
		C8.902,50.998,8.906,51,8.91,51h15.314c2.898,1.83,6.318,2.906,9.992,2.906c10.358,0,18.786-8.427,18.786-18.785v-0.104
		C53.002,32.032,46.828,30.74,42.419,30.198z M41.904,17h1.965l-3.681,13.805c0,0.001,0,0.002,0,0.002
		c0,0.002-0.001,0.003-0.001,0.003l-0.596,2.289c-0.139,0.534,0.181,1.08,0.716,1.22c0.084,0.021,0.169,0.032,0.252,0.032
		c0.444,0,0.85-0.298,0.967-0.748l0.377-1.448c6.826,0.805,9.099,2.385,9.099,2.863c0,0.984-5.711,3.293-16.786,3.293
		c-11.075,0-16.786-2.309-16.786-3.293c0-0.985,5.711-3.294,16.786-3.294c0.592,0,1.159,0.023,1.735,0.038l-0.187,0.744
		c-0.135,0.536,0.19,1.079,0.726,1.214c0.082,0.021,0.164,0.03,0.245,0.03c0.447,0,0.854-0.303,0.969-0.756l0.49-1.946h0
		l3.677-13.79C41.893,17.174,41.904,17.087,41.904,17z M7.88,48.481l-4.976-2.14V2H7.88V48.481z M21.568,49H9.91V2h28.994v18.619
		l-2.438,9.143c-0.737-0.023-1.486-0.038-2.25-0.038c-6.498,0-18.786,1.106-18.786,5.294v0.104c0,0.66,0.036,1.312,0.103,1.954
		c0.02,0.191,0.061,0.377,0.087,0.567c0.06,0.448,0.12,0.896,0.212,1.333c0.052,0.249,0.128,0.489,0.189,0.735
		c0.093,0.368,0.18,0.737,0.294,1.096c0.091,0.286,0.205,0.562,0.309,0.842c0.113,0.304,0.22,0.612,0.348,0.908
		c0.131,0.303,0.283,0.596,0.43,0.892c0.129,0.26,0.253,0.523,0.394,0.776c0.167,0.301,0.352,0.59,0.535,0.881
		c0.148,0.235,0.294,0.472,0.452,0.7c0.194,0.279,0.401,0.547,0.61,0.816c0.178,0.229,0.356,0.457,0.544,0.677
		c0.207,0.242,0.424,0.476,0.644,0.709c0.222,0.235,0.447,0.464,0.681,0.687C21.369,48.793,21.461,48.903,21.568,49z M34.217,51.906
		c-3.418,0-6.597-1.032-9.252-2.793c-0.127-0.084-0.249-0.174-0.373-0.261c-0.286-0.201-0.567-0.41-0.84-0.628
		c-0.099-0.079-0.201-0.156-0.298-0.238c-0.356-0.298-0.7-0.61-1.029-0.936c-0.061-0.061-0.12-0.123-0.18-0.185
		c-0.325-0.331-0.639-0.672-0.935-1.029c-0.018-0.021-0.037-0.042-0.054-0.063c-0.32-0.389-0.621-0.793-0.905-1.21
		c-0.034-0.05-0.068-0.101-0.101-0.152c-0.555-0.832-1.036-1.716-1.438-2.643c-0.033-0.077-0.067-0.154-0.099-0.231
		c-0.188-0.451-0.359-0.912-0.507-1.382c-0.019-0.059-0.034-0.12-0.052-0.179c-0.13-0.427-0.241-0.863-0.336-1.304
		c-0.019-0.088-0.041-0.175-0.059-0.264c-0.046-0.229-0.07-0.464-0.107-0.696c3.84,1.994,11.774,2.597,16.564,2.597
		c4.791,0,12.724-0.603,16.564-2.597C49.528,45.739,42.589,51.906,34.217,51.906z"/>
</g>
<g>
</g>
<g>
</g>
<g>
</g>
<g>
</g>
<g>
</g>
<g>
</g>
<g>
</g>
<g>
</g>
<g>
</g>
<g>
</g>
<g>
</g>
<g>
</g>
<g>
</g>
<g>
</g>
<g>
</g>
</svg>
