<?xml version="1.0" encoding="iso-8859-1"?>
<!-- Generator: Adobe Illustrator 19.0.0, SVG Export Plug-In . SVG Version: 6.00 Build 0)  -->
<svg version="1.1" id="Capa_1" xmlns="http://www.w3.org/2000/svg" xmlns:xlink="http://www.w3.org/1999/xlink" x="0px" y="0px"
	 viewBox="0 0 480.014 480.014" style="enable-background:new 0 0 480.014 480.014;" xml:space="preserve">
<g>
	<g>
		<path d="M480.014,96.006c-0.06-20.269-15.306-37.273-35.448-39.536c-34.99-55.899-108.67-72.85-164.57-37.86
			c-21.839,13.67-38.671,34.037-47.982,58.06C213.255,28.515,165.845-2.287,114.222,0.142C49.364,4.012-0.962,58.24,0.014,123.206
			c0.146,55.911,26.296,108.572,70.752,142.48l18.112,13.744c-25.174,41.221-39.159,88.297-40.576,136.576h-0.288
			c-8.837,0-16,7.163-16,16v32c0,8.837,7.163,16,16,16h280c8.837,0,16-7.163,16-16v-32c-0.009-5.256-2.599-10.172-6.928-13.152
			l6.856-6.496C430.63,329.937,479.8,215.622,480.014,96.006z M80.438,252.902c-40.472-30.864-64.282-78.799-64.424-129.696
			c-0.959-56.415,42.644-103.596,98.96-107.08c57.37-2.784,106.134,41.468,108.918,98.838c0.081,1.679,0.122,3.361,0.122,5.042
			c0,4.418,3.582,8,8,8s8-3.582,8-8c-0.522-56.94,45.215-103.522,102.155-104.044c33.355-0.305,64.796,15.544,84.389,42.54
			c-15.874,5.65-26.493,20.655-26.544,37.504c0.198,63.196-28.997,122.891-79,161.536l-20.712,16.112l24.712-35.704
			c14.087-20.48,8.904-48.503-11.576-62.589c-17.832-12.265-41.868-10.102-57.224,5.149L154.926,281.782
			c-5.201,5.217-10.118,10.71-14.728,16.456L80.438,252.902z M96.014,464.006h-48v-32h48V464.006z M64.302,416.006
			c1.394-44.801,14.273-88.493,37.4-126.888l28.968,21.976c-21.136,31.028-33.082,67.394-34.464,104.912H64.302z M328.014,464.006
			h-216v-32h216V464.006z M332.942,400.75L332.942,400.75l-16.128,15.256H112.406c1.8-46.294,21.028-90.197,53.832-122.912
			L267.51,191.83c11.472-10.961,29.536-10.961,41.008,0c9.905,9.898,11.31,25.465,3.336,36.976l-54.4,78.616
			c-2.509,3.637-1.594,8.619,2.043,11.128c2.87,1.979,6.69,1.872,9.445-0.264l61.904-48.144
			c53.907-41.656,85.382-106.01,85.168-174.136c0-13.255,10.745-24,24-24s24,10.745,24,24
			C463.803,211.23,416.441,321.348,332.942,400.75z"/>
	</g>
</g>
<g>
	<g>
		<path d="M168.014,96.006h-24v-24c0-4.418-3.582-8-8-8h-32c-4.418,0-8,3.582-8,8v24h-24c-4.418,0-8,3.582-8,8v32
			c0,4.418,3.582,8,8,8h24v24c0,4.418,3.582,8,8,8h32c4.418,0,8-3.582,8-8v-24h24c4.418,0,8-3.582,8-8v-32
			C176.014,99.588,172.432,96.006,168.014,96.006z M160.014,128.006h-24c-4.418,0-8,3.582-8,8v24h-16v-24c0-4.418-3.582-8-8-8h-24
			v-16h24c4.418,0,8-3.582,8-8v-24h16v24c0,4.418,3.582,8,8,8h24V128.006z"/>
	</g>
</g>
<g>
	<g>
		<path d="M120.014,32.006c-48.601,0-88,39.399-88,88s39.399,88,88,88c48.577-0.057,87.943-39.423,88-88
			C208.014,71.405,168.615,32.006,120.014,32.006z M120.014,192.006c-39.746-0.044-71.956-32.254-72-72c0-39.765,32.235-72,72-72
			s72,32.235,72,72C192.014,159.77,159.778,192.006,120.014,192.006z"/>
	</g>
</g>
<g>
	<g>
		<rect x="296.014" y="440.006" width="16" height="16"/>
	</g>
</g>
<g>
</g>
<g>
</g>
<g>
</g>
<g>
</g>
<g>
</g>
<g>
</g>
<g>
</g>
<g>
</g>
<g>
</g>
<g>
</g>
<g>
</g>
<g>
</g>
<g>
</g>
<g>
</g>
<g>
</g>
</svg>
