<?xml version="1.0" encoding="iso-8859-1"?>
<!-- Generator: Adobe Illustrator 19.0.0, SVG Export Plug-In . SVG Version: 6.00 Build 0)  -->
<svg version="1.1" id="Layer_1" xmlns="http://www.w3.org/2000/svg" xmlns:xlink="http://www.w3.org/1999/xlink" x="0px" y="0px"
	 viewBox="0 0 511.999 511.999" style="enable-background:new 0 0 511.999 511.999;" xml:space="preserve">
<g>
	<g>
		<path d="M335.392,406.29h-0.133c-5.522,0-10,4.477-10,10s4.478,10,10,10h0.133c5.522,0,10-4.477,10-10
			S340.914,406.29,335.392,406.29z"/>
	</g>
</g>
<g>
	<g>
		<path d="M448,406.29h-79.873c-5.522,0-10,4.477-10,10s4.478,10,10,10H448c5.522,0,10-4.477,10-10S453.522,406.29,448,406.29z"/>
	</g>
</g>
<g>
	<g>
		<path d="M188.114,359.956c-3.891-3.919-10.259-3.905-14.177-0.015c-3.919,3.892-3.941,10.223-0.05,14.142
			c1.954,1.969,4.524,2.954,7.096,2.954c2.548,0,5.096-0.967,7.046-2.904l0.069-0.069
			C192.017,370.172,192.005,363.875,188.114,359.956z"/>
	</g>
</g>
<g>
	<g>
		<path d="M446.011,122.026h-66.97v-18c0-5.523-4.478-10-10-10h-19V59.974c0-5.523-4.478-10-10-10H171.959c-5.522,0-10,4.477-10,10
			v34.052h-20.478c-5.522,0-10,4.477-10,10v18H65.989C29.603,122.026,0,151.628,0,188.016v208.021
			c0,36.387,29.603,65.989,65.989,65.989H446.01c36.387,0,65.989-29.603,65.989-65.989V188.016
			C512,151.628,482.397,122.026,446.011,122.026z M359.041,114.026v8h-38v-8H359.041z M330.041,69.974v24.052h-19
			c-5.522,0-10,4.477-10,10v18h-91.56v-18c0-5.523-4.478-10-10-10h-17.522V69.974H330.041z M151.481,114.026h38v8h-38V114.026z
			 M20,188.016c0-25.36,20.631-45.991,45.989-45.991H446.01c25.358,0,45.989,20.631,45.989,45.99v57.99H362.48
			c-5.636-13.083-13.786-25.334-24.456-36.004c-21.909-21.909-51.039-33.975-82.024-33.975c-30.982,0-60.116,12.067-82.024,33.976
			c-10.52,10.52-18.754,22.692-24.495,36.004H20V188.016z M492,396.035c0,25.36-20.631,45.991-45.989,45.991H65.989
			C40.631,442.026,20,421.394,20,396.036V266.005h122.946c-0.746,3.273-1.365,6.59-1.833,9.953
			c-3.385,24.32,1.135,49.559,12.724,71.068c2.621,4.862,8.688,6.68,13.547,4.06c4.862-2.62,6.68-8.685,4.061-13.547
			c-19.94-37.007-13.084-83.638,16.675-113.396c18.132-18.132,42.239-28.118,67.882-28.118s49.75,9.986,67.882,28.117
			c37.431,37.431,37.431,98.335,0,135.765c-29.759,29.759-76.391,36.616-113.396,16.673c-4.865-2.62-10.928-0.802-13.547,4.06
			c-2.62,4.862-0.803,10.927,4.059,13.547c16.853,9.081,35.991,13.821,55.188,13.821c5.304,0,10.617-0.362,15.882-1.095
			c25.149-3.5,47.957-14.863,65.958-32.864c29.263-29.263,39.584-70.399,30.98-108.045H492V396.035z"/>
	</g>
</g>
<g>
	<g>
		<path d="M285.784,229.549c-16.641,0-24.85,10.515-29.784,17.095c-4.934-6.581-13.143-17.095-29.783-17.095
			c-21.411,0-38.831,17.419-38.831,38.831c0,9.668,1.107,18.458,15.035,36.001c4.146,5.223,6.667,17.547,8.692,27.449
			c1.539,7.527,2.993,14.637,5.212,20.384c4.647,12.037,11.979,14.563,17.313,14.563c14.093,0,18.981-15.347,22.362-27.413
			c3.382,12.065,8.27,27.413,22.362,27.413c5.333,0,12.666-2.526,17.313-14.563c2.22-5.747,3.674-12.857,5.213-20.384
			c2.025-9.902,4.546-22.225,8.692-27.449c13.927-17.543,15.034-26.333,15.034-36.001
			C324.614,246.969,307.195,229.549,285.784,229.549z M293.916,291.945c-7.119,8.968-9.917,22.647-12.623,35.876
			c-0.908,4.444-2.111,10.323-3.392,14.631c-1.199-3.285-2.335-7.374-3.091-10.092c-3.183-11.447-6.789-24.422-18.811-24.422
			c-12.022,0-15.628,12.975-18.81,24.421c-0.756,2.718-1.893,6.807-3.092,10.092c-1.28-4.309-2.482-10.187-3.391-14.63
			c-2.706-13.229-5.504-26.909-12.623-35.877c-10.699-13.476-10.699-17.929-10.699-23.566c0.002-10.381,8.449-18.829,18.833-18.829
			c6.638,0,9.673,3.604,14.075,9.485c3.513,4.691,7.884,10.529,15.708,10.529c7.825,0,12.196-5.838,15.709-10.53
			c4.402-5.881,7.438-9.485,14.075-9.485c10.383,0,18.83,8.447,18.83,18.831C304.614,274.016,304.614,278.469,293.916,291.945z"/>
	</g>
</g>
<g>
</g>
<g>
</g>
<g>
</g>
<g>
</g>
<g>
</g>
<g>
</g>
<g>
</g>
<g>
</g>
<g>
</g>
<g>
</g>
<g>
</g>
<g>
</g>
<g>
</g>
<g>
</g>
<g>
</g>
</svg>
