<?xml version="1.0" encoding="iso-8859-1"?>
<!-- Generator: Adobe Illustrator 19.0.0, SVG Export Plug-In . SVG Version: 6.00 Build 0)  -->
<svg version="1.1" id="Capa_1" xmlns="http://www.w3.org/2000/svg" xmlns:xlink="http://www.w3.org/1999/xlink" x="0px" y="0px"
	 viewBox="0 0 512.002 512.002" style="enable-background:new 0 0 512.002 512.002;" xml:space="preserve">
<g>
	<g>
		<path d="M508.14,56.775c-2.438-1.895-5.613-2.558-8.603-1.797l-47.576,12.097c-7.64,1.941-15.509,2.926-23.389,2.926h-69.819
			c-22.649,0-41.568,16.251-44.984,38.643c-1.914,12.55-12.519,21.658-25.213,21.658h-2.555v-20.889
			c17.247-10.268,28.832-29.093,28.832-50.581C314.834,26.392,288.442,0,256.001,0c-32.441,0-58.832,26.392-58.832,58.832
			c0,21.488,11.585,40.313,28.832,50.581v20.889h-2.555c-12.694,0-23.299-9.108-25.213-21.658
			c-3.416-22.392-22.335-38.643-44.984-38.643H83.43c-7.88,0-15.749-0.984-23.388-2.926L12.465,54.979
			c-2.988-0.76-6.165-0.098-8.603,1.797c-2.436,1.894-3.861,4.808-3.861,7.894c0,21.109,8.144,40.346,21.442,54.758
			c0.292,24.269,11.791,45.877,29.554,59.903l9.407,12.572c21.449,28.668,55.632,45.784,91.438,45.784
			c27.466,0,53.495-9.655,74.159-27.348v35.663h-8.969c-35.657,0-64.667,29.01-64.667,64.667c0,10.896,2.765,21.672,7.994,31.164
			c1.822,3.308,5.241,5.177,8.768,5.177c1.632,0,3.287-0.4,4.816-1.243c4.838-2.665,6.599-8.747,3.934-13.584
			c-3.605-6.545-5.512-13.984-5.512-21.514c0-24.63,20.037-44.667,44.667-44.667h8.969v89.333h-23.5
			c-26.375,0-47.833,21.458-47.833,47.834c0,26.375,21.458,47.833,47.833,47.833h27.804c3.467,18.778,9.012,37.144,16.631,54.937
			c1.575,3.679,5.191,6.063,9.192,6.063h0.018c4.008-0.007,7.625-2.406,9.189-6.097l0.197-0.465
			c7.458-17.64,12.884-35.84,16.273-54.438h11.363c11.304,0,20.5,9.196,20.5,20.5c0,11.304-9.196,20.5-20.5,20.5h-0.679
			c-5.522,0-10,4.478-10,10c0,5.522,4.478,10,10,10h0.679c22.332,0,40.5-18.168,40.5-40.5c0-22.332-18.168-40.5-40.5-40.5h-8.519
			c0.896-8.775,1.352-17.624,1.352-26.533v-29.134h6.667c35.657,0,64.666-29.009,64.666-64.666
			c0-35.657-29.009-64.667-64.666-64.667h-6.667v-35.663c20.665,17.694,46.693,27.348,74.159,27.348
			c35.805,0,69.986-17.115,91.438-45.784l9.407-12.572c17.764-14.026,29.262-35.635,29.554-59.904
			c13.299-14.411,21.442-33.648,21.442-54.757C512.001,61.584,510.576,58.67,508.14,56.775z M218.084,190.46
			c-17.751,17.558-41.276,27.227-66.242,27.227c-22.243,0-43.724-8.01-60.533-22.065c2.51,0.246,5.053,0.379,7.627,0.379h16.746
			c5.522,0,10-4.478,10-10c0-5.522-4.478-10-10-10H98.936c-25.309,0-46.838-16.442-54.507-39.2
			c10.945,5.546,23.303,8.694,36.389,8.696l20.683,0.003h0.001c5.521,0,9.999-4.477,10-9.999c0.001-5.522-4.476-10-9.999-10.001
			l-20.683-0.003c-28.993-0.004-53.313-20.401-59.369-47.598l33.665,8.559c9.248,2.352,18.774,3.543,28.314,3.543h69.819
			c12.695,0,23.299,9.108,25.213,21.658c3.416,22.392,22.335,38.643,44.984,38.643h2.555v32.328L218.084,190.46z M202.501,431.001
			c-15.347,0-27.833-12.486-27.833-27.833c0-15.348,12.486-27.834,27.833-27.834h23.5v28.539c0,9.112,0.479,18.159,1.415,27.128
			H202.501z M266.001,404.468c0,23.284-3.327,46.135-9.911,68.213c-6.703-22.261-10.089-45.307-10.089-68.808v-28.539h20V404.468z
			 M266.001,355.334h-20V116.797c3.252,0.56,6.59,0.868,10,0.868c3.41,0,6.748-0.308,10-0.868V355.334z M292.668,266.001
			c24.629,0,44.666,20.037,44.666,44.667c0,24.629-20.037,44.666-44.666,44.666h-6.667v-89.333H292.668z M256.001,97.664
			c-21.413,0-38.832-17.42-38.832-38.832c0-21.412,17.42-38.832,38.832-38.832s38.832,17.42,38.832,38.832
			C294.833,80.244,277.414,97.664,256.001,97.664z M431.182,125.497l-20.681,0.003c-5.523,0.001-10,4.479-9.999,10.001
			c0.001,5.523,4.479,10,10.001,9.999l20.683-0.003c13.086-0.002,25.444-3.149,36.389-8.696c-7.669,22.758-29.199,39.2-54.507,39.2
			h-16.747c-5.522,0-10,4.478-10,10c0,5.522,4.478,10,10,10h16.746c2.574,0,5.116-0.133,7.626-0.379
			c-16.81,14.055-38.29,22.065-60.532,22.065c-24.966,0-48.491-9.669-66.242-27.226l-7.918-7.831v-32.328h2.555
			c22.649,0,41.568-16.251,44.984-38.643c1.914-12.55,12.518-21.658,25.213-21.658h69.819c9.54,0,19.066-1.191,28.315-3.543
			l33.664-8.559C484.495,105.095,460.175,125.493,431.182,125.497z"/>
	</g>
</g>
<g>
	<g>
		<path d="M223.07,494.931c-1.859-1.861-4.439-2.93-7.069-2.93s-5.21,1.069-7.07,2.93c-1.86,1.861-2.93,4.44-2.93,7.07
			s1.069,5.21,2.93,7.069c1.86,1.86,4.44,2.931,7.07,2.931s5.21-1.07,7.069-2.931c1.86-1.859,2.931-4.439,2.931-7.069
			S224.931,496.791,223.07,494.931z"/>
	</g>
</g>
<g>
</g>
<g>
</g>
<g>
</g>
<g>
</g>
<g>
</g>
<g>
</g>
<g>
</g>
<g>
</g>
<g>
</g>
<g>
</g>
<g>
</g>
<g>
</g>
<g>
</g>
<g>
</g>
<g>
</g>
</svg>
