<?xml version="1.0" encoding="iso-8859-1"?>
<!-- Generator: Adobe Illustrator 19.0.0, SVG Export Plug-In . SVG Version: 6.00 Build 0)  -->
<svg version="1.1" id="Capa_1" xmlns="http://www.w3.org/2000/svg" xmlns:xlink="http://www.w3.org/1999/xlink" x="0px" y="0px"
	 viewBox="0 0 512 512" style="enable-background:new 0 0 512 512;" xml:space="preserve">
<g>
	<g>
		<polygon points="255.505,334.396 236.84,359.429 255.505,451.571 274.17,359.429 		"/>
	</g>
</g>
<g>
	<g>
		<path d="M444.912,318.101c-8.613-8.613-17.8-16.441-27.46-23.48L277.534,495.194h234.465v-15.125H512
			C512,418.886,488.174,361.365,444.912,318.101z M468.092,444.246h-98.37v-30.251h98.37V444.246z"/>
	</g>
</g>
<g>
	<g>
		<path d="M94.806,294.435c-9.754,7.086-19.028,14.976-27.717,23.666C23.826,361.364,0,418.885,0,480.068v15.125h233.475
			L94.806,294.435z"/>
	</g>
</g>
<g>
	<g>
		<path d="M391.836,278.441c-18.478-10.012-38.245-17.403-58.84-21.971c33.422-24.021,55.233-63.227,55.233-107.435
			c0-11.481-1.473-22.625-4.237-33.254h-74.886c-6.596,23.121-27.897,40.104-53.105,40.104c-25.208,0-46.511-16.983-53.105-40.104
			H128.01c-2.763,10.629-4.237,21.773-4.237,33.254c0,44.208,21.811,83.414,55.233,107.435
			c-20.491,4.545-40.162,11.883-58.56,21.817l96.473,135.169l-12.411-61.272l32.936-44.172l-18.531-32.05
			c11.773,3.446,24.217,5.302,37.088,5.302c12.482,0,24.564-1.739,36.02-4.987l-18.301,31.941l32.783,43.967l-12.958,63.975
			L391.836,278.441z"/>
	</g>
</g>
<g>
	<g>
		<path d="M256,75.678c-13.772,0-24.978,11.205-24.978,24.978c0,13.773,11.206,24.978,24.978,24.978s24.978-11.205,24.978-24.978
			C280.978,86.883,269.772,75.678,256,75.678z"/>
	</g>
</g>
<g>
	<g>
		<path d="M256,16.806c-49.911,0-93.446,27.799-115.95,68.724h62.844C209.49,62.41,230.792,45.427,256,45.427
			s46.511,16.983,53.105,40.104h62.844C349.446,44.606,305.911,16.806,256,16.806z"/>
	</g>
</g>
<g>
</g>
<g>
</g>
<g>
</g>
<g>
</g>
<g>
</g>
<g>
</g>
<g>
</g>
<g>
</g>
<g>
</g>
<g>
</g>
<g>
</g>
<g>
</g>
<g>
</g>
<g>
</g>
<g>
</g>
</svg>
