<?xml version="1.0" encoding="iso-8859-1"?>
<!-- Generator: Adobe Illustrator 18.0.0, SVG Export Plug-In . SVG Version: 6.00 Build 0)  -->
<!DOCTYPE svg PUBLIC "-//W3C//DTD SVG 1.1//EN" "http://www.w3.org/Graphics/SVG/1.1/DTD/svg11.dtd">
<svg version="1.1" id="Capa_1" xmlns="http://www.w3.org/2000/svg" xmlns:xlink="http://www.w3.org/1999/xlink" x="0px" y="0px"
	 viewBox="0 0 422.166 422.166" style="enable-background:new 0 0 422.166 422.166;" xml:space="preserve">
<g>
	<path d="M61.042,125.963c-2.996-0.15-5.887,2.341-6.836,5.032c-1.014,2.876-0.41,6.777,1.897,8.912
		c-0.177-9.637,3.417-11.168,6.729-13.829C62.247,125.978,61.635,125.941,61.042,125.963
		C60.661,125.944,61.414,125.949,61.042,125.963z"/>
	<path d="M408.529,337.72V174.748H152.042V337.72h-3.21h-10V82.916h10h0.5v-26H0v26h0.5h10V337.72h-10H0v27.53h0.5h148.332h273.334
		v-27.53H408.529z M88.894,189.243c-7.191,3.899-7.126-26.765-14.228-26.765s-7.036,30.664-14.228,26.765
		c-7.504-4.067-12.521-19.292-6.096-39.734c-13.88-21.248-2.731-32.775,14.944-25.82c2.173,0.854,3.957,1.466,5.379,1.903
		c1.422-0.438,3.207-1.05,5.379-1.903c17.676-6.955,28.823,4.572,14.944,25.82C101.415,169.951,96.396,185.176,88.894,189.243z
		 M291.786,210.582h61.334v27h-61.334V210.582z M268.786,337.72h-71.502v-56.971h71.502V337.72z M268.786,237.582h-61.334v-27
		h61.334V237.582z M363.287,337.72h-71.501v-56.971h71.501V337.72z"/>
</g>
<g>
</g>
<g>
</g>
<g>
</g>
<g>
</g>
<g>
</g>
<g>
</g>
<g>
</g>
<g>
</g>
<g>
</g>
<g>
</g>
<g>
</g>
<g>
</g>
<g>
</g>
<g>
</g>
<g>
</g>
</svg>
