<?xml version="1.0" encoding="iso-8859-1"?>
<!-- Generator: Adobe Illustrator 19.0.0, SVG Export Plug-In . SVG Version: 6.00 Build 0)  -->
<svg version="1.1" id="Capa_1" xmlns="http://www.w3.org/2000/svg" xmlns:xlink="http://www.w3.org/1999/xlink" x="0px" y="0px"
	 viewBox="0 0 512 512" style="enable-background:new 0 0 512 512;" xml:space="preserve">
<g>
	<g>
		<path d="M497,273.134c-8.284,0-15,6.716-15,15v33.199H182.692l-75.835-91.002c-2.85-3.42-7.072-5.398-11.523-5.398H30v-33.2
			c0-8.284-6.716-15-15-15s-15,6.716-15,15v48.2v192.8V497c0,8.284,6.716,15,15,15s15-6.716,15-15v-49.267h452V497
			c0,8.284,6.716,15,15,15s15-6.716,15-15v-64.267v-96.4v-48.199C512,279.85,505.284,273.134,497,273.134z M241,417.734H30v-162.8
			h58.309l75.835,91.002c2.85,3.42,7.072,5.398,11.523,5.398H241V417.734z M482,417.733H271v-66.4h211V417.733z"/>
	</g>
</g>
<g>
	<g>
		<path d="M320.268,64.267H271V15c0-8.284-6.716-15-15-15s-15,6.716-15,15v49.267h-49.267c-8.284,0-15,6.716-15,15s6.716,15,15,15
			H241v49.267c0,8.284,6.716,15,15,15s15-6.716,15-15V94.267h49.268c8.284,0,15-6.716,15-15S328.552,64.267,320.268,64.267z"/>
	</g>
</g>
<g>
</g>
<g>
</g>
<g>
</g>
<g>
</g>
<g>
</g>
<g>
</g>
<g>
</g>
<g>
</g>
<g>
</g>
<g>
</g>
<g>
</g>
<g>
</g>
<g>
</g>
<g>
</g>
<g>
</g>
</svg>
