<?xml version="1.0" encoding="iso-8859-1"?>
<!-- Generator: Adobe Illustrator 19.0.0, SVG Export Plug-In . SVG Version: 6.00 Build 0)  -->
<svg version="1.1" id="Layer_1" xmlns="http://www.w3.org/2000/svg" xmlns:xlink="http://www.w3.org/1999/xlink" x="0px" y="0px"
	 viewBox="0 0 512 512" style="enable-background:new 0 0 512 512;" xml:space="preserve">
<g>
	<g>
		<g>
			<path d="M476.379,343.416c-11.629-7.263-26.457-8.008-38.781-1.991l-87.368,42.405v-4.608c0-22.15-16.967-39.603-39.117-39.603
				h-84.619c-17.265,0-34.919-2.873-51.411-7.976l-55.124-17.18v-22.227c0-7.105-4.688-13.079-11.793-13.079H30.982
				c-7.105,0-13.936,5.974-13.936,13.079v204.543c0,7.105,6.832,12.649,13.936,12.649h77.186c7.105,0,11.793-5.546,11.793-12.649
				v-20.594l9.203,6.855C152.478,501.79,182.329,512,212.249,512h74.352c26.605,0,52.282-7.813,74.255-22.81l116.866-79.707
				c10.791-7.365,17.232-19.532,17.232-32.594C494.954,363.175,488.01,350.68,476.379,343.416z M94.23,483.698H42.773V304.884H94.23
				V483.698z M463.218,388.289L346.352,467.94c-17.681,12.068-38.343,18.332-59.751,18.332h-74.352
				c-24.074,0-48.201-8.195-66.961-23.283l-25.329-19.823V341.395l47.517,14.825c18.959,5.869,39.171,9.127,59.019,9.127h84.619
				c7.963,0,13.388,5.911,13.388,13.874v15.552c-15.437,4.217-51.568,11.686-88.128,5.803c-7.01-1.126-13.353,3.642-14.481,10.657
				c-1.128,7.015,3.774,13.616,10.789,14.745c11.186,1.8,22.3,2.521,32.835,2.521c41.39,0,74.818-11.146,76.985-11.885
				c0.003-0.001,0.023-0.003,0.026-0.003c0.012-0.004,0.045-0.013,0.055-0.015c0.476-0.163,0.937-0.358,1.38-0.57
				c0.032-0.015,0.068-0.024,0.099-0.04l105.351-51.443c4.36-2.129,9.221-1.876,13.336,0.695s6.476,6.827,6.476,11.68
				C469.225,381.471,466.979,385.721,463.218,388.289z"/>
			<path d="M36.692,169.017c11.632,7.263,25.6,8.014,37.923,1.998l86.511-42.398v4.608c0,22.15,18.682,40.444,40.833,40.444h84.619
				c17.266,0,34.061,2.452,50.553,7.557l54.267,16.76v22.227c0,7.105,6.403,12.633,13.508,12.633h77.186
				c7.105,0,12.221-5.528,12.221-12.633V15.669c-0.001-7.105-5.117-13.096-12.222-13.096h-77.186
				c-7.105,0-13.508,5.991-13.508,13.096v20.594l-8.345-7.078C359.736,10.434,330.741,0,300.821,0h-74.352
				c-26.603,0-52.281,8.034-74.257,23.034L35.348,102.853c-10.789,7.365-17.23,19.586-17.23,32.65
				C18.117,149.216,25.062,161.752,36.692,169.017z M417.125,28.302h51.457v178.814h-51.457V28.302z M49.853,124.156l116.866-79.873
				c17.682-12.068,38.345-18.554,59.751-18.554h74.352c24.074,0,47.345,8.417,66.105,23.506l24.469,20.047v101.771l-46.658-14.404
				c-18.958-5.869-38.314-8.708-58.161-8.708h-84.619c-7.963,0-15.104-6.753-15.104-14.716v-15.553
				c16.724-4.217,52.422-11.686,88.986-5.802c7.008,1.127,13.782-3.643,14.911-10.657c1.128-7.015-3.56-13.616-10.575-14.745
				c-55.072-8.865-106.854,8.399-109.679,9.361c-0.005,0.001,0.012,0.003,0.006,0.005c-0.013,0.005-0.023,0.012-0.033,0.015
				c-0.266,0.091-0.5,0.195-0.726,0.304c-0.248,0.103-0.498,0.188-0.741,0.306l-105.35,51.443
				c-4.361,2.128-9.219,1.876-13.334-0.695s-6.475-6.827-6.475-11.678C43.846,130.975,46.092,126.724,49.853,124.156z"/>
			<path d="M261.715,212.807c-6.107-3.547-13.105-5.478-20.281-5.478c-22.251,0-40.354,18.103-40.354,40.355
				c0,13.198,9.126,28.265,27.899,46.065c12.454,11.807,24.756,20.602,25.273,20.971c2.233,1.591,4.849,2.386,7.463,2.386
				c2.614,0,5.229-0.795,7.463-2.386c0.517-0.369,12.819-9.164,25.273-20.971c18.773-17.798,27.899-32.866,27.899-46.065
				c0-22.251-18.103-40.355-40.355-40.355C274.819,207.329,267.82,209.26,261.715,212.807z M296.621,247.686
				c0,8.187-17.173,26.454-34.911,40.469c-17.736-13.995-34.9-32.253-34.9-40.469c0-8.066,6.561-14.627,14.625-14.627
				c4.151,0,7.984,1.689,10.792,4.757c2.437,2.662,5.879,4.177,9.489,4.177c3.608,0,7.051-1.517,9.487-4.178
				c2.808-3.067,6.641-4.756,10.791-4.756C290.059,233.059,296.621,239.621,296.621,247.686z"/>
		</g>
	</g>
</g>
<g>
</g>
<g>
</g>
<g>
</g>
<g>
</g>
<g>
</g>
<g>
</g>
<g>
</g>
<g>
</g>
<g>
</g>
<g>
</g>
<g>
</g>
<g>
</g>
<g>
</g>
<g>
</g>
<g>
</g>
</svg>
