<?xml version='1.0' encoding='utf-8'?>
<!DOCTYPE svg PUBLIC '-//W3C//DTD SVG 1.1//EN' 'http://www.w3.org/Graphics/SVG/1.1/DTD/svg11.dtd'>
<svg version="1.1" xmlns="http://www.w3.org/2000/svg" viewBox="0 0 512 512" xmlns:xlink="http://www.w3.org/1999/xlink" enable-background="new 0 0 512 512">
  <g>
    <path d="m480.6,347.9h-52.7v-88.5c0-11.3-9.1-20.4-20.4-20.4h-131.1v-74.9h52.7c11.3,0 20.4-9.1 20.4-20.4v-112.3c0-11.3-9.1-20.4-20.4-20.4h-146.2c-11.3,0-20.4,9.1-20.4,20.4v112.3c0,11.3 9.1,20.4 20.4,20.4h52.7v74.9h-131.1c-11.3,0-20.4,9.1-20.4,20.4v88.5h-52.7c-11.3,0-20.4,9.1-20.4,20.4v112.3c0,11.3 9.1,20.4 20.4,20.4h146.2c11.3,0 20.4-9.1 20.4-20.4v-112.3c0-11.3-9.1-20.4-20.4-20.4h-52.7v-68h262.2v68h-52.7c-11.3,0-20.4,9.1-20.4,20.4v112.3c0,11.3 9.1,20.4 20.4,20.4h146.2c11.3,0 20.4-9.1 20.4-20.4v-112.3c5.68434e-14-11.3-9.1-20.4-20.4-20.4zm-323.4,112.3h-105.4v-71.5h105.3v71.5zm46.2-336.9v-71.5h105.3v71.5h-105.3zm256.9,336.9h-105.4v-71.5h105.3v71.5z"/>
  </g>
</svg>
