<?xml version="1.0" encoding="iso-8859-1"?>
<!-- Generator: Adobe Illustrator 19.0.0, SVG Export Plug-In . SVG Version: 6.00 Build 0)  -->
<svg version="1.1" id="Capa_1" xmlns="http://www.w3.org/2000/svg" xmlns:xlink="http://www.w3.org/1999/xlink" x="0px" y="0px"
	 viewBox="0 0 448 448" style="enable-background:new 0 0 448 448;" xml:space="preserve">
<g>
	<g>
		<path d="M216,56V38.525c-6.777-2.416-12.109-7.749-14.525-14.525H96v72H40v105.474c6.777,2.416,12.11,7.749,14.526,14.526h146.948
			c2.416-6.777,7.749-12.11,14.526-14.526V168h-48V56H216z"/>
	</g>
</g>
<g>
	<g>
		<circle cx="224" cy="16" r="8"/>
	</g>
</g>
<g>
	<g>
		<path d="M216,280v-33.475c-6.777-2.416-12.109-7.749-14.525-14.525H54.526c-2.416,6.777-7.749,12.11-14.526,14.526V352h56v72
			h105.474c2.416-6.777,7.749-12.11,14.526-14.526V392h-48V280H216z"/>
	</g>
</g>
<g>
	<g>
		<path d="M0,368v80h80v-80H0z M16,384h16v16H16V384z M56,432H24v-16h32V432z M64,400H48v-16h16V400z"/>
	</g>
</g>
<g>
	<g>
		<circle cx="32" cy="224" r="8"/>
	</g>
</g>
<g>
	<g>
		<circle cx="416" cy="224" r="8"/>
	</g>
</g>
<g>
	<g>
		<path d="M352,96V24H246.526c-2.416,6.777-7.749,12.11-14.526,14.526V56h48v112h-48v33.474c6.777,2.416,12.11,7.749,14.526,14.526
			h146.948c2.416-6.777,7.749-12.11,14.526-14.526V96H352z"/>
	</g>
</g>
<g>
	<g>
		<path d="M184,296v80h80v-80H184z M200,312h16v16h-16V312z M240,360h-32v-16h32V360z M248,328h-16v-16h16V328z"/>
	</g>
</g>
<g>
	<g>
		<path d="M184,72v80h80V72H184z M200,88h16v16h-16V88z M240,136h-32v-16h32V136z M248,104h-16V88h16V104z"/>
	</g>
</g>
<g>
	<g>
		<circle cx="224" cy="224" r="8"/>
	</g>
</g>
<g>
	<g>
		<path d="M0,0v80h80V0H0z M16,16h16v16H16V16z M56,64H24V48h32V64z M64,32H48V16h16V32z"/>
	</g>
</g>
<g>
	<g>
		<path d="M393.475,232H246.526c-2.416,6.777-7.749,12.11-14.526,14.526V280h48v112h-48v17.474
			c6.777,2.416,12.11,7.749,14.526,14.526H352v-72h56V246.525C401.223,244.109,395.891,238.777,393.475,232z"/>
	</g>
</g>
<g>
	<g>
		<circle cx="224" cy="432" r="8"/>
	</g>
</g>
<g>
	<g>
		<path d="M368,368v80h80v-80H368z M384,384h16v16h-16V384z M424,432h-32v-16h32V432z M432,400h-16v-16h16V400z"/>
	</g>
</g>
<g>
	<g>
		<path d="M368,0v80h80V0H368z M384,16h16v16h-16V16z M424,64h-32V48h32V64z M432,32h-16V16h16V32z"/>
	</g>
</g>
<g>
</g>
<g>
</g>
<g>
</g>
<g>
</g>
<g>
</g>
<g>
</g>
<g>
</g>
<g>
</g>
<g>
</g>
<g>
</g>
<g>
</g>
<g>
</g>
<g>
</g>
<g>
</g>
<g>
</g>
</svg>
