<?xml version="1.0" encoding="iso-8859-1"?>
<!-- Generator: Adobe Illustrator 19.0.0, SVG Export Plug-In . SVG Version: 6.00 Build 0)  -->
<svg version="1.1" id="Capa_1" xmlns="http://www.w3.org/2000/svg" xmlns:xlink="http://www.w3.org/1999/xlink" x="0px" y="0px"
	 viewBox="0 0 480.197 480.197" style="enable-background:new 0 0 480.197 480.197;" xml:space="preserve">
<g>
	<g>
		<path d="M432.098,144.581h-26.936c25.346-48.102,6.898-107.644-41.205-132.989C325.795-8.517,278.986-1.44,248.474,29.053
			l-8.376,8.368l-8.376-8.368C193.423-9.503,131.12-9.71,92.565,28.589c-30.782,30.578-37.903,77.708-17.53,116.015H48.098
			c-4.418,0-8,3.582-8,8s3.582,8,8,8v-0.024H85.61c2.135,2.653,4.405,5.195,6.8,7.616l128.704,128.552
			c10.497,10.453,27.471,10.453,37.968,0l128.704-128.552c2.395-2.421,4.665-4.963,6.8-7.616h37.512c4.418,0,8-3.582,8-8
			S436.517,144.581,432.098,144.581z M247.77,285.445c-4.242,4.225-11.102,4.225-15.344,0L107.41,160.581h68.688
			c3.038,0.024,5.827-1.674,7.2-4.384l15.352-30.688l25.904,77.6c1.09,3.262,4.144,5.463,7.584,5.464h0.24
			c3.531-0.106,6.575-2.515,7.488-5.928l23.568-88.256l8.888,40c0.955,4.314,5.226,7.037,9.54,6.082
			c1.87-0.414,3.529-1.485,4.676-3.018l16.232-21.6l10.168,20.344c1.364,2.722,4.155,4.434,7.2,4.416h52.688L247.77,285.445z
			 M386.554,144.605h-61.512l-13.744-27.544c-1.956-3.962-6.753-5.589-10.715-3.633c-1.139,0.562-2.129,1.388-2.885,2.409
			l-13.6,18.064l-12.224-54.952c-0.803-3.599-3.962-6.182-7.648-6.256c-3.67-0.038-6.908,2.393-7.896,5.928l-25.12,94.096
			l-23.568-70.592c-1.398-4.191-5.929-6.456-10.12-5.058c-2.012,0.671-3.675,2.113-4.624,4.01l-21.784,43.528H93.642
			c-17.924-26.5-18.839-60.995-2.344-88.408c23.473-39.07,74.175-51.713,113.244-28.24c5.776,3.47,11.105,7.634,15.868,12.4
			l14.032,14.008c3.124,3.123,8.188,3.123,11.312,0l14.032-14.008c32.144-32.246,84.342-32.329,116.588-0.185
			C404.342,68.051,408.612,111.849,386.554,144.605z"/>
	</g>
</g>
<g>
	<g>
		<path d="M154.61,351.437l-34.512-19.704v-35.312c0.187-17.464-13.82-31.773-31.284-31.96c-2.944-0.031-5.877,0.348-8.716,1.128
			v-33.096c0-17.673-14.327-32-32-32s-32,14.327-32,32v66.2c0,51.19,25.611,98.985,68.232,127.336l27.768,18.496v27.672
			c0,4.418,3.582,8,8,8s8-3.582,8-8v-31.952c-0.002-2.671-1.338-5.165-3.56-6.648L93.21,412.733
			c-38.171-25.391-61.109-68.195-61.112-114.04v-66.2c0-8.837,7.163-16,16-16s16,7.163,16,16v43.008
			c-5.126,5.766-7.971,13.205-8,20.92v32c0,4.418,3.582,8,8,8s8-3.582,8-8v-32c0-8.837,7.163-16,16-16s16,7.163,16,16v39.952
			c-0.003,2.861,1.522,5.506,4,6.936l38.544,22c18.201,10.365,29.445,29.695,29.456,50.64v56.248c0,4.418,3.582,8,8,8s8-3.582,8-8
			v-56.248C192.103,389.271,177.791,364.642,154.61,351.437z"/>
	</g>
</g>
<g>
	<g>
		<path d="M432.098,200.533c-17.657,0-31.978,14.302-32,31.96v33.096c-16.841-4.627-34.245,5.275-38.872,22.116
			c-0.78,2.839-1.16,5.772-1.128,8.716v35.312l-34.512,19.704c-23.181,13.205-37.492,37.834-37.488,64.512v56.248
			c0,4.418,3.582,8,8,8s8-3.582,8-8v-56.248c0.01-20.937,11.239-40.263,29.424-50.64l38.544-22c2.478-1.43,4.003-4.075,4-6.936
			v-39.952c0-8.837,7.163-16,16-16s16,7.163,16,16v32c0,4.418,3.582,8,8,8s8-3.582,8-8v-32c-0.029-7.715-2.874-15.154-8-20.92
			v-43.008c0-8.837,7.163-16,16-16s16,7.163,16,16v66.2c-0.013,45.842-22.948,88.642-61.112,114.04l-31.328,20.864
			c-2.222,1.483-3.558,3.977-3.56,6.648v31.952c0,4.418,3.582,8,8,8s8-3.582,8-8v-27.68l27.768-18.496
			c42.623-28.349,68.244-76.138,68.264-127.328v-66.2C464.076,214.835,449.756,200.533,432.098,200.533z"/>
	</g>
</g>
<g>
</g>
<g>
</g>
<g>
</g>
<g>
</g>
<g>
</g>
<g>
</g>
<g>
</g>
<g>
</g>
<g>
</g>
<g>
</g>
<g>
</g>
<g>
</g>
<g>
</g>
<g>
</g>
<g>
</g>
</svg>
