<?xml version="1.0" encoding="iso-8859-1"?>
<!-- Generator: Adobe Illustrator 19.0.0, SVG Export Plug-In . SVG Version: 6.00 Build 0)  -->
<svg version="1.1" id="Capa_1" xmlns="http://www.w3.org/2000/svg" xmlns:xlink="http://www.w3.org/1999/xlink" x="0px" y="0px"
	 viewBox="0 0 512.003 512.003" style="enable-background:new 0 0 512.003 512.003;" xml:space="preserve">
<g>
	<g>
		<g>
			<path d="M369.532,200.811H354.88v-14.652c0-5.523-4.477-10-10-10h-27.506c-5.523,0-10,4.477-10,10v14.652h-14.652
				c-5.523,0-10,4.477-10,10v27.506c0,5.523,4.477,10,10,10h14.652v14.652c0,5.523,4.477,10,10,10h27.506c5.523,0,10-4.477,10-10
				v-14.652h14.652c5.523,0,10-4.477,10-10v-27.506C379.532,205.288,375.055,200.811,369.532,200.811z M359.532,228.317H344.88
				c-5.523,0-10,4.477-10,10v14.652h-7.506v-14.652c0-5.523-4.477-10-10-10h-14.652v-7.506h14.652c5.523,0,10-4.477,10-10v-14.652
				h7.506v14.652c0,5.523,4.477,10,10,10h14.652V228.317z"/>
			<path d="M198.356,174.96H151.08c-12.13,0-23.176,7.152-28.139,18.22l-28.783,64.184c-2.365,5.276-1.901,11.323,1.241,16.176
				c3.142,4.853,8.47,7.75,14.252,7.75h88.705c9.362,0,16.979-7.617,16.979-16.979v-72.372
				C215.335,182.577,207.719,174.96,198.356,174.96z M114.316,261.29l26.873-59.926c1.745-3.89,5.626-6.404,9.89-6.404h44.255v66.33
				H114.316z"/>
			<path d="M248.64,280.181c-0.25-0.61-0.56-1.19-0.92-1.73c-0.36-0.55-0.78-1.06-1.24-1.52c-2.32-2.32-5.78-3.39-9.03-2.73
				c-0.63,0.12-1.26,0.32-1.87,0.57c-0.6,0.25-1.18,0.56-1.72,0.92c-0.55,0.36-1.06,0.78-1.52,1.24c-0.46,0.46-0.88,0.97-1.25,1.52
				c-0.36,0.54-0.67,1.12-0.92,1.73c-0.25,0.6-0.44,1.23-0.57,1.87s-0.19,1.3-0.19,1.95c0,0.65,0.06,1.31,0.19,1.95
				s0.32,1.27,0.57,1.88c0.25,0.6,0.56,1.18,0.92,1.72c0.37,0.55,0.79,1.06,1.25,1.52c0.46,0.46,0.97,0.88,1.52,1.24
				c0.54,0.36,1.12,0.67,1.72,0.92c0.61,0.25,1.24,0.45,1.87,0.57c0.65,0.13,1.31,0.2,1.96,0.2c2.63,0,5.21-1.07,7.07-2.93
				c0.46-0.46,0.88-0.97,1.24-1.52c0.36-0.54,0.67-1.12,0.92-1.72c0.25-0.61,0.44-1.24,0.57-1.88s0.2-1.3,0.2-1.95
				c0-0.65-0.07-1.31-0.2-1.95S248.89,280.781,248.64,280.181z"/>
			<path d="M505.423,345.158l0.012-35.385c0.004-0.118,0.018-0.234,0.018-0.353v-54.176l0.024-74.681
				c0.003-9.014-3.505-17.488-9.877-23.863c-6.373-6.374-14.846-9.885-23.86-9.885H283.126v-13.395
				c0-6.076-3.894-11.246-9.313-13.184l-1.365-9.895c-1.654-11.992-12.031-21.035-24.136-21.035h-28.221
				c-12.105,0-22.482,9.043-24.136,21.036l-1.365,9.894c-5.418,1.938-9.313,7.108-9.313,13.184v13.395h-48.481
				c-16.756,0-32.085,9.847-39.053,25.086l-39.469,86.33c-2.953,6.46-8.922,10.854-15.968,11.754
				c-13.46,1.72-23.611,13.25-23.611,26.82v42.299C8.132,340.674,0,349.803,0,360.798v12.808c0,12.096,9.841,21.937,21.937,21.937
				h29.751c10.543,16.32,28.881,27.154,49.714,27.154c20.833,0,39.171-10.834,49.714-27.154h206.776
				c10.543,16.32,28.881,27.154,49.714,27.154c20.833,0,39.171-10.834,49.714-27.154h32.746c12.096,0,21.937-9.841,21.937-21.937
				v-12.808C512,354.679,509.479,349.139,505.423,345.158z M215.769,113.074c0.296-2.148,2.155-3.769,4.324-3.769h28.221
				c2.168,0,4.027,1.62,4.324,3.768l0.874,6.333h-38.615L215.769,113.074z M205.278,139.406h57.848v7.407h-57.848V139.406z
				 M21.937,375.543L21.937,375.543c-1.068,0-1.937-0.869-1.937-1.937v-12.808c0-1.068,0.869-1.937,1.937-1.937h16.76h3.75
				c-0.122,1.546-0.202,3.103-0.202,4.679c0,3.462,0.316,6.849,0.889,10.15c0.108,0.619,0.21,1.24,0.337,1.853H21.937z
				 M101.401,402.751c-21.655,0-39.211-17.555-39.211-39.21c0-21.656,17.555-39.211,39.211-39.211
				c21.655,0,39.211,17.555,39.211,39.211C140.612,385.197,123.057,402.751,101.401,402.751z M159.669,373.69
				c0.573-3.3,0.889-6.688,0.889-10.15c0-1.576-0.081-3.133-0.202-4.679h79.051h109.242c-0.122,1.546-0.202,3.103-0.202,4.679
				c0,3.462,0.316,6.849,0.889,10.15H159.669z M407.604,402.751c-21.655,0-39.211-17.555-39.211-39.21
				c0-21.656,17.555-39.211,39.211-39.211s39.211,17.555,39.211,39.211C446.814,385.197,429.259,402.751,407.604,402.751z
				 M485.414,373.69h-19.543c0.573-3.3,0.889-6.688,0.889-10.15c0-1.576-0.081-3.133-0.202-4.679h18.86L485.414,373.69z
				 M485.438,299.418h-13.28c-1.211,0-2.196-0.985-2.196-2.196v-30.101c0-1.211,0.985-2.196,2.196-2.196h13.291L485.438,299.418z
				 M485.456,244.926h-13.298c-12.239,0-22.196,9.957-22.196,22.196v30.101c0,12.239,9.957,22.196,22.196,22.196h13.274
				l-0.006,19.443h-24.079c-9.372-20.327-29.93-34.478-53.742-34.478s-44.37,14.151-53.742,34.478H249.407v-14.86
				c0-5.523-4.477-10-10-10c-5.523,0-10,4.477-10,10v14.861h-74.263c-9.372-20.327-29.93-34.478-53.742-34.478
				s-44.37,14.151-53.742,34.478h-8.963v-42.058c0-3.532,2.643-6.534,6.146-6.981c13.952-1.783,25.773-10.484,31.622-23.277
				l39.469-86.33c3.722-8.142,11.912-13.402,20.863-13.402h58.481h34.129v77.187c0,5.523,4.477,10,10,10c5.523,0,10-4.477,10-10
				v-77.188h23.719H471.74c3.67,0,7.121,1.43,9.715,4.025c2.595,2.596,4.023,6.046,4.022,9.716L485.456,244.926z"/>
		</g>
	</g>
</g>
<g>
</g>
<g>
</g>
<g>
</g>
<g>
</g>
<g>
</g>
<g>
</g>
<g>
</g>
<g>
</g>
<g>
</g>
<g>
</g>
<g>
</g>
<g>
</g>
<g>
</g>
<g>
</g>
<g>
</g>
</svg>
