<?xml version="1.0" encoding="utf-8"?><!DOCTYPE svg PUBLIC "-//W3C//DTD SVG 1.1//EN" "http://www.w3.org/Graphics/SVG/1.1/DTD/svg11.dtd"><svg version="1.1" xmlns="http://www.w3.org/2000/svg" xmlns:xlink="http://www.w3.org/1999/xlink" width="24" height="24" viewBox="0 0 24 24" data-code="58736" data-tags="train"><g fill="#444" transform="scale(0.0234375 0.0234375)"><path d="M704 726c36 0 64-28 64-64s-28-64-64-64-64 28-64 64 28 64 64 64zM554 426h214v-170h-214v170zM470 426v-170h-214v170h214zM320 726c36 0 64-28 64-64s-28-64-64-64-64 28-64 64 28 64 64 64zM512 86c188 0 342 20 342 170v406c0 82-68 148-150 148l64 64v22h-86l-84-86h-162l-84 86h-96v-22l64-64c-82 0-150-66-150-148v-406c0-150 172-170 342-170z" /></g></svg>