<?xml version="1.0" encoding="utf-8"?><!DOCTYPE svg PUBLIC "-//W3C//DTD SVG 1.1//EN" "http://www.w3.org/Graphics/SVG/1.1/DTD/svg11.dtd"><svg version="1.1" xmlns="http://www.w3.org/2000/svg" xmlns:xlink="http://www.w3.org/1999/xlink" width="32" height="32" viewBox="0 0 32 32" data-tags="qzone"><g fill="#444" transform="scale(0.03125 0.03125)"><path fill="rgb(254, 206, 0)" d="M1023.36 392.619c-1.365-4.224-5.419-9.515-14.251-11.008-8.832-1.536-313.643-59.989-313.643-59.989s-4.48-0.939-8.448-2.987c-3.925-2.005-5.419-7.125-5.419-7.125s-150.528-270.72-154.709-278.656c-4.224-7.979-10.453-10.155-14.891-10.155s-10.709 2.176-14.891 10.155c-4.181 7.936-154.709 278.656-154.709 278.656s-1.493 5.12-5.461 7.125c-3.925 2.005-8.405 2.987-8.405 2.987s-304.811 58.453-313.685 59.947c-8.875 1.536-12.885 6.827-14.208 11.008-0.367 1.446-0.578 3.107-0.578 4.816 0 5.595 2.258 10.663 5.912 14.342l-0.001-0.001 228.779 234.24s3.072 3.413 5.077 7.339c0.683 4.437 0.213 8.96 0.213 8.96s-50.731 308.992-52.053 317.867 3.2 15.744 6.784 18.347c3.541 2.645 9.941 4.523 17.963 0.555 8.064-3.968 290.645-139.136 290.645-139.136s4.181-1.877 8.576-2.603c4.395-0.725 8.576 2.603 8.576 2.603s282.581 135.168 290.645 139.136c8.021 4.011 14.421 2.091 17.963-0.555 4.322-3.648 7.048-9.069 7.048-15.126 0-1.137-0.096-2.252-0.281-3.337l0.016 0.117c-0.896-5.973-39.68-242.219-39.68-242.219 37.376-23.040 60.8-44.331 78.891-74.539-110.677 41.344-256.256 73.259-401.707 79.616-39.040 1.749-102.827 4.139-148.181-0.64-28.928-3.029-49.92-6.144-53.035-18.688-2.261-9.173 2.304-19.627 23.253-35.456-237.839 172.174-198.119 142.017-158.378 111.887l280.448-203.833c54.827-41.301 151.851-105.387 151.851-116.523 0-12.16-91.477-33.323-172.245-33.323-82.987 0-97.067 5.632-119.936 7.168-20.821 1.451-32.811 0.213-34.304-5.888-2.56-10.581 7.808-16.597 25.088-24.235 30.251-13.397 79.36-25.344 84.651-26.709 8.277-2.219 131.499-34.347 239.701-22.827 56.235 5.973 138.411 28.501 138.411 54.443 0 14.592-73.429 63.744-137.6 110.805-49.024 35.968-94.592 66.603-94.592 72.021 0 14.592 150.741 52.949 285.397 43.093l0.128-0.939c2.048-3.925 5.077-7.339 5.077-7.339l228.779-234.24c3.694-3.685 5.98-8.781 5.98-14.41 0-1.685-0.205-3.321-0.591-4.887l0.029 0.14z" /></g></svg>